<svg width="47" height="45" viewBox="0 0 47 45" fill="none" xmlns="http://www.w3.org/2000/svg">
<path d="M23.5 0C29.278 0 35.3275 3.22042 39.4199 6.53223C44.5198 10.6594 46.9999 17.0571 47 23.9512C47 36.3776 34.1129 45 23.5 45C12.8871 44.9998 0 34.9263 0 22.5C1.51612 11.613 12.1291 0.725946 23.5 0ZM21.5527 21.457L13.9453 21.751L13.665 25.7041L21.3135 25.6768L21.3271 33.1865L26.2578 32.8291C26.2615 33.0823 26.2645 33.1387 26.2656 32.8291H26.2578C26.2481 32.1653 26.2327 30.1488 26.2246 29.8135L26.1797 27.9541C26.194 27.328 26.1628 27.2308 26.1465 26.5508C26.1589 25.8436 26.1347 26.3426 26.1484 25.6895C26.5012 25.6817 29.1654 25.6797 29.6963 25.6953C30.2255 25.6837 30.5228 25.6793 31.082 25.6943C31.67 25.6815 32.6889 25.6755 33.1602 25.6924C33.6306 25.6821 33.6935 23.9163 33.9287 23.9111L34.2725 21.6992L33.6016 21.3057L26.3027 21.4648L26.123 11.9688L21.0264 11.9609L21.5527 21.457Z" fill="#DAE16B"/>
</svg>
