<svg width="22" height="26" viewBox="0 0 22 26" fill="none" xmlns="http://www.w3.org/2000/svg">
<path d="M4.8916 0.0126953C6.76231 -0.0135049 9.15229 0.00438969 11.501 0.0390625C13.8516 0.0737641 16.1692 0.125596 17.8984 0.168945C18.7632 0.190623 19.4815 0.209537 19.9834 0.223633C20.2342 0.230676 20.4311 0.2363 20.5654 0.240234C20.6324 0.242197 20.684 0.244081 20.7188 0.245117C20.7361 0.245634 20.7499 0.245827 20.7588 0.246094C20.763 0.246227 20.7664 0.247005 20.7686 0.24707H20.7715L21.6572 0.273438L21.7373 1.15625V1.15918C21.7375 1.16095 21.738 1.16396 21.7383 1.16699C21.7388 1.17317 21.7402 1.18206 21.7412 1.19336C21.7432 1.21686 21.7454 1.25206 21.749 1.29688C21.7563 1.38673 21.767 1.51887 21.7793 1.69043C21.804 2.03403 21.8365 2.53669 21.8691 3.17773C21.9345 4.45987 22 6.29767 22 8.52832C22 10.7513 21.9347 14.6291 21.8701 17.9424C21.8378 19.6008 21.8055 21.1211 21.7812 22.2266C21.7691 22.779 21.759 23.2281 21.752 23.5391C21.7484 23.6942 21.746 23.8154 21.7441 23.8975C21.7432 23.9383 21.7427 23.9702 21.7422 23.9912C21.7419 24.0017 21.7413 24.0103 21.7412 24.0156V24.0234L21.6982 25.875L20.1738 24.8232H20.1729L20.1719 24.8223C20.1708 24.8216 20.1691 24.8198 20.167 24.8184C20.1628 24.8155 20.1565 24.8112 20.1484 24.8057C20.1315 24.794 20.1054 24.7767 20.0723 24.7539C20.006 24.7083 19.9087 24.6409 19.7842 24.5557C19.535 24.385 19.1771 24.1405 18.7451 23.8477C17.8808 23.2617 16.7197 22.4808 15.5293 21.7012C14.3364 20.9199 13.1234 20.1459 12.1533 19.5693C11.6666 19.2801 11.2548 19.0493 10.9443 18.8936C10.8409 18.8417 10.7554 18.802 10.6875 18.7725C10.6306 18.7993 10.5604 18.8348 10.4766 18.8799C10.1923 19.0327 9.81646 19.2616 9.37012 19.5498C8.48064 20.1241 7.37374 20.897 6.28613 21.6777C5.20104 22.4567 4.14476 23.2366 3.35938 23.8223C2.96698 24.1149 2.64213 24.3588 2.41602 24.5293C2.30312 24.6144 2.21433 24.6811 2.1543 24.7266C2.12436 24.7492 2.10128 24.7667 2.08594 24.7783C2.0784 24.784 2.07315 24.7891 2.06934 24.792C2.06743 24.7934 2.06538 24.7942 2.06445 24.7949L2.06348 24.7959L0.547852 25.9482L0.458984 24.0459V24.042C0.458862 24.0393 0.45825 24.0353 0.458008 24.0303C0.457512 24.0195 0.457014 24.0025 0.456055 23.9814C0.454126 23.9392 0.451885 23.8762 0.448242 23.7949C0.440922 23.6317 0.43009 23.3922 0.416992 23.0879C0.390772 22.4786 0.353795 21.6079 0.313477 20.5615C0.232845 18.4689 0.136846 15.6709 0.0722656 12.8545C0.00776094 10.0412 -0.025392 7.19507 0.0234375 5.0127C0.0477706 3.92558 0.0930148 2.9797 0.167969 2.27734C0.204979 1.93063 0.25288 1.60818 0.319336 1.34668C0.352019 1.21816 0.398014 1.06759 0.467773 0.923828C0.521739 0.812643 0.667912 0.536531 0.984375 0.366211L1.0957 0.3125C1.20567 0.266283 1.30786 0.240389 1.375 0.224609C1.48063 0.199803 1.59456 0.179662 1.70703 0.164062C1.93274 0.132761 2.20991 0.108499 2.51953 0.0888672C3.14165 0.0494296 3.95821 0.0257718 4.8916 0.0126953ZM4.91992 2.0127C3.99751 2.02562 3.21874 2.04862 2.64551 2.08496C2.4749 2.09578 2.32784 2.10797 2.2041 2.12012C2.18836 2.22263 2.17162 2.34526 2.15625 2.48926C2.09034 3.10682 2.04742 3.98622 2.02344 5.05762C1.97565 7.19346 2.00696 10.0029 2.07129 12.8086C2.13555 15.6109 2.2321 18.3976 2.3125 20.4844C2.33507 21.0701 2.35701 21.6006 2.37598 22.0605C3.14038 21.4919 4.11719 20.7727 5.12012 20.0527C6.21587 19.2661 7.35402 18.4713 8.28516 17.8701C8.74887 17.5707 9.17681 17.3092 9.53027 17.1191C9.70589 17.0247 9.88024 16.9382 10.042 16.873C10.1697 16.8216 10.4125 16.7306 10.6797 16.7305L10.8711 16.7441C11.0549 16.771 11.2151 16.8297 11.3105 16.8662C11.4743 16.9288 11.6555 17.0125 11.8408 17.1055C12.214 17.2926 12.6727 17.5521 13.1748 17.8506C14.1827 18.4496 15.4247 19.2422 16.625 20.0283C17.7888 20.7906 18.9232 21.5521 19.7832 22.1348C19.8073 21.0346 19.8393 19.5359 19.8711 17.9033C19.9357 14.5868 20 10.7285 20 8.52832C20 6.33613 19.9359 4.53235 19.8721 3.2793C19.8509 2.86337 19.8264 2.50823 19.8076 2.21973C19.3157 2.20601 18.6445 2.18792 17.8486 2.16797C16.1234 2.12472 13.813 2.07265 11.4717 2.03809C9.12843 2.00349 6.76145 1.9869 4.91992 2.0127ZM12.0371 8.50781L14.8789 8.44531L15.1396 8.58203L15.0039 9.35156C14.9123 9.35356 14.8862 9.96753 14.7031 9.97168C14.5197 9.96622 14.1225 9.96863 13.8936 9.97363C13.6761 9.96894 13.5604 9.97109 13.3545 9.97559C13.1483 9.97064 12.1128 9.97356 11.9736 9.97656C11.9676 10.2038 11.9772 10.0302 11.9717 10.2764C11.9774 10.5126 11.9896 10.5463 11.9834 10.7637L11.999 11.4102C12.0018 11.5265 12.0057 12.2281 12.0088 12.459H12.0117C12.011 12.5667 12.01 12.547 12.0088 12.459L10.0889 12.5879L10.0908 9.97656L7.11328 9.99316L7.22656 8.61816L10.1885 8.50879L9.99316 5.20801L11.9766 5.20605L12.0371 8.50781Z" fill="#DAE16B"/>
</svg>
