<svg width="91" height="44" viewBox="0 0 91 44" fill="none" xmlns="http://www.w3.org/2000/svg">
<path d="M5.36295 30.7744L6.29894 38.4668C6.29894 38.4668 56.5347 39.786 57.602 38.4668C57.602 26.5299 57.602 5.68545 57.602 5.68545L54.8371 3.46094L8.52999 4.02651C6.98565 7.39627 6.75944 9.98253 5.92959 15.2158C5.09975 20.4491 5.08829 25.6225 5.36295 30.7744Z" fill="#CCCCCC"/>
<path d="M70.9551 5.65918C71.0829 6.36412 71.2573 7.36237 71.4482 8.58789C71.8497 11.1645 72.3281 14.7248 72.6367 18.665C73.2033 25.8994 73.129 33.722 71.4375 39.2119C71.1612 39.2308 70.8536 39.2508 70.5146 39.2686C68.504 39.3741 65.6619 39.442 62.2324 39.4795C55.3879 39.5544 46.3802 39.5047 37.3926 39.4043C28.4109 39.304 19.4735 39.1538 12.7803 39.0283C9.55253 38.9678 6.84749 38.9124 4.91211 38.8721L4.06348 32.8906C3.69236 26.8204 3.73093 20.9156 4.82129 15.0234C5.80655 9.69917 6.15373 7.09697 7.18652 4.51562L69.0615 3.86719L70.9551 5.65918Z" stroke="#CCCCCC" stroke-width="7.70344"/>
<path d="M90.3509 29.712L80.7068 30.4578L81.4783 24.4913L80.7068 11.8125L90.3509 14.4228V29.712Z" fill="#CCCCCC"/>
</svg>
