<svg width="417" height="351" viewBox="0 0 417 351" fill="none" xmlns="http://www.w3.org/2000/svg">
<path d="M237.45 3.32172C253.273 -0.107978 268.836 -0.883057 284.131 1.00239L285.611 1.19379L285.696 1.20551L285.779 1.2309C291.016 2.88831 297.561 5.55518 305.403 9.21723L306.148 9.54243C313.861 12.9525 321.959 17.8959 330.439 24.3569C331.834 25.4202 333.17 27.1312 334.502 29.1118C335.843 31.1046 337.253 33.4865 338.756 35.937C339.892 37.7889 341.088 39.692 342.371 41.5454C349.372 41.5198 356.34 42.0728 363.275 43.2065H363.274C371.677 44.5761 379.595 46.7712 387.023 49.7954H387.022C394.576 52.7577 401.115 56.477 406.628 60.9614L406.672 60.9975L406.712 61.0375C412.073 66.5149 415.347 72.559 416.461 79.1635C417.497 85.3004 417.037 91.4403 415.09 97.5688L415.086 97.5825L414.291 99.9741L414.287 99.9848C412.184 106.073 408.834 111.717 404.248 116.914C399.356 122.456 393.542 126.962 386.819 130.428C385.111 131.309 383.344 132.127 381.52 132.887C385.079 137.414 387.319 142.295 388.203 147.529C389.238 153.666 388.778 159.806 386.832 165.934L386.828 165.948L386.032 168.339L386.028 168.35C383.926 174.438 380.576 180.082 375.99 185.279C371.098 190.821 365.284 195.327 358.56 198.793C354.831 200.716 350.826 202.35 346.548 203.697L346.543 203.699C342.395 204.98 338.019 206.024 333.417 206.829C331.258 207.206 329.076 207.514 326.871 207.759L308 242.5L292.902 255.565L273.275 267.174V293.71L277.804 336.831L268.372 347.342L235.155 349L231 313.612L232.062 271.566L198.879 240.875C198.875 240.823 198.872 240.77 198.868 240.717C198.645 238.226 198.148 235.219 197.502 232.011C196.201 225.54 194.126 217.425 191.739 209.272C189.349 201.11 186.593 192.724 183.893 185.715C182.545 182.216 181.171 178.956 179.826 176.195C178.561 173.599 177.037 170.839 175.269 168.776C172.579 165.636 168.455 162.296 164.395 159.302C160.175 156.19 155.402 153.004 150.972 150.17C148.913 148.853 146.91 147.601 145.049 146.455C147.657 143.996 150.567 141.081 153.467 137.827C157.956 132.791 162.618 126.735 166.086 120.136C169.524 113.596 172.122 105.891 171.59 97.7944C170.812 85.9423 169.289 75.0554 164.459 65.7416C164.273 65.3829 164.081 65.0287 163.886 64.6772C166.869 64.5855 169.997 64.4701 173.185 64.3911C178.649 64.2555 184.258 64.2311 189.466 64.6391C187.083 60.6071 184.282 53.5582 184.282 46.5004C184.282 41.4414 183.187 37.0331 187.423 29.9848C190.012 25.6776 192.105 23.0666 194.663 20.7817C197.184 18.5287 200.153 16.603 204.383 13.6782C215.925 5.69867 221.217 6.65607 237.45 3.32172ZM233.893 199.16C229.746 201.319 225.374 203.225 220.774 204.871L220.762 204.874L220.437 203.929C220.913 203.759 221.388 203.586 221.859 203.41C221.388 203.585 220.913 203.758 220.437 203.928C216.65 205.229 212.765 206.3 208.782 207.143C209.758 206.936 210.729 206.717 211.694 206.483C212.189 206.363 212.683 206.239 213.174 206.112C214.158 205.857 215.136 205.588 216.108 205.304C216.593 205.162 217.078 205.017 217.56 204.868C218.525 204.569 219.484 204.256 220.437 203.929L220.761 204.874C215.855 206.559 210.787 207.862 205.559 208.786L208.082 222.325L232.814 241.828L233.893 199.16ZM274.786 238.974L298.045 234.464L310.835 208.333C305.272 208.142 299.636 207.585 293.928 206.658H293.927C287.279 205.574 280.899 203.99 274.786 201.912V238.974ZM185.125 218.999C186.265 223.224 187.268 227.264 188.062 230.87L184 227.113L185.125 218.999ZM153.249 64.8022C159.654 73.1764 161.661 83.9527 162.609 98.3842L162.638 98.9311C163.604 122.091 129.84 147.714 129.739 147.791C129.941 147.907 160.554 165.436 168.434 174.632L168.622 174.857C172.317 179.443 177.726 193.98 182.179 208.71C178.242 207.968 174.439 206.905 170.774 205.518L170.762 205.514C162.893 202.425 155.895 198.392 149.775 193.414L149.766 193.408L149.756 193.4C143.805 188.318 139.119 182.777 135.719 176.773L135.715 176.766C132.679 171.304 130.98 165.85 130.649 160.415C128.81 159.185 126.988 157.968 125.186 156.766C116.062 150.681 108.175 145.107 101.531 140.044C95.099 135.144 90.3387 131.086 87.2827 127.879C84.0654 124.846 81.669 122.14 80.1333 119.769L80.0728 119.675L80.0347 119.572C79.0768 116.977 78.8034 113.581 79.1343 109.453C79.0865 105.149 80.5765 100.444 83.4937 95.3608C86.1021 90.1272 91.177 84.9636 98.5806 79.8452C106.829 74.1428 115.811 70.1629 125.518 67.9086C134.39 65.8486 143.635 64.8154 153.249 64.8022ZM294.088 205.671C294.622 205.758 295.156 205.841 295.689 205.921C295.156 205.841 294.622 205.757 294.088 205.67C293.568 205.585 293.048 205.499 292.531 205.408C293.048 205.499 293.568 205.586 294.088 205.671ZM333.245 205.843L334.734 205.573C334.775 205.565 334.815 205.556 334.856 205.548C334.322 205.649 333.785 205.749 333.245 205.843ZM363.114 44.1928L361.792 43.9838C361.745 43.9768 361.699 43.9703 361.653 43.9633C362.14 44.0371 362.627 44.1133 363.114 44.1928ZM340.186 40.0766C340.585 40.6883 340.991 41.3016 341.409 41.9096L341.404 41.9018C340.988 41.2963 340.583 40.6858 340.186 40.0766ZM200.837 17.3315C200.793 17.362 200.749 17.3929 200.706 17.4233C201.119 17.1364 201.547 16.8407 201.993 16.5346L200.837 17.3315ZM305.744 10.4575C306.094 10.6124 306.446 10.7709 306.798 10.9321C306.693 10.8839 306.588 10.8352 306.483 10.7875C306.236 10.6757 305.99 10.5652 305.744 10.4565V10.4575Z" fill="#F4EDE8"/>
<path d="M74.8334 55.8655C57.8941 66.5635 55.1596 78.2494 54.4261 98.3845C53.6926 118.52 74.8334 144.437 74.8334 144.437C74.8334 144.437 43.5154 159.535 37.7826 164.567C32.0499 169.6 -3.82592 233.767 0.334898 239.219C4.49571 244.672 29.8771 248.446 29.8771 248.446L63.5801 194.764L56.8849 255.156C56.8849 255.156 7.18142 338.548 14.0847 344.034C20.9879 349.52 51.3623 350.727 56.8849 349.52C62.4075 348.314 93.5383 278.642 93.5383 278.642C93.5383 278.642 109.681 346.936 116.253 349.679C122.825 352.422 154.4 350.789 158.448 345.745C162.495 340.701 135.582 265.717 135.582 265.717L139.724 194.764C139.724 194.764 165.937 251.801 168.434 251.801C170.93 251.801 186.742 250.124 189.654 245.51C192.567 240.897 176.34 183.859 168.434 174.633C160.528 165.406 129.738 147.792 129.738 147.792C129.738 147.792 164.141 121.721 162.609 98.3845C161.077 75.048 156.777 61.268 135.582 51.7508C114.387 42.2335 91.7727 45.1675 74.8334 55.8655Z" fill="#F4EDE8"/>
</svg>
