<svg width="434" height="363" viewBox="0 0 434 363" fill="none" xmlns="http://www.w3.org/2000/svg">
<path d="M277.354 5.09949e-07C282.29 -0.000476338 285.17 0.333377 292.885 1.38672L302.466 2.69434L302.551 2.70606L302.634 2.73145C307.871 4.38888 314.416 7.05562 322.258 10.7178L323.003 11.043C330.716 14.4531 338.814 19.3963 347.294 25.8574C348.689 26.9208 350.025 28.6317 351.357 30.6123C352.698 32.6052 354.108 34.9869 355.611 37.4375C356.747 39.2897 357.944 41.1923 359.227 43.0459C366.227 43.0204 373.196 43.5733 380.13 44.707H380.129C388.528 46.0759 396.441 48.2694 403.865 51.291C410.952 54.069 417.146 57.5133 422.438 61.6299L423.483 62.4619L423.527 62.498L423.567 62.5381C428.928 68.0155 432.202 74.0594 433.316 80.6641C434.352 86.801 433.892 92.9408 431.945 99.0693L431.941 99.083L431.146 101.475L431.142 101.485C429.039 107.574 425.689 113.217 421.103 118.414C416.211 123.957 410.398 128.463 403.674 131.929C401.966 132.809 400.199 133.628 398.375 134.388C401.934 138.914 404.174 143.795 405.058 149.029C406.093 155.166 405.633 161.306 403.687 167.435L403.683 167.448L402.887 169.84L402.883 169.851C400.781 175.939 397.431 181.583 392.845 186.779C387.953 192.322 382.139 196.828 375.415 200.294C371.686 202.216 367.681 203.85 363.403 205.197L363.397 205.199C359.25 206.48 354.874 207.524 350.271 208.329C345.663 209.135 340.945 209.638 336.124 209.842L336.115 209.843C327.837 210.119 319.392 209.557 310.783 208.158H310.782C306.515 207.463 302.358 206.561 298.311 205.455L291.641 240.474V291.5L295.854 319L310.354 348.842H229.354L247.854 315.111L237.694 206.347C237.672 206.355 237.651 206.363 237.629 206.371L237.617 206.375C229.916 209.02 221.816 210.727 213.324 211.497L213.279 211.501H213.233C209.032 211.501 204.961 211.186 201.022 210.558C199.138 204.569 197.114 198.654 195.091 193.402C193.67 189.715 192.16 186.115 190.613 182.939C189.255 180.152 187.188 176.245 184.381 172.969C180.739 168.718 175.659 164.7 171.518 161.646C169.044 159.821 166.419 157.995 163.805 156.236C168.281 151.053 173.009 144.755 176.707 137.721C180.716 130.093 184.293 120.124 183.563 109.009C182.769 96.911 181.159 83.8822 175.111 72.2188C171.319 64.9042 166.219 58.9047 159.912 53.9375C164.912 52.2299 169.955 51.1439 174.423 51.2227H174.422C179.689 51.2454 185.897 52.5449 192.124 53.9561C197.811 55.2448 203.524 56.6263 208.732 57.3115C208.593 56.4707 208.632 55.5395 208.762 54.6035C209.002 52.8729 209.595 50.8487 210.362 48.7256C211.898 44.4768 214.211 39.6286 216.074 35.6074C217.234 33.1044 219.596 30.0883 222.326 27.0791C225.075 24.0488 228.271 20.9476 231.176 18.2656C235.118 14.6258 237.006 12.782 239.261 11.3877C241.518 9.99224 244.142 9.04431 249.508 7.06152C262.291 2.33772 260.781 3.38431 277.153 0.0205083L277.253 5.09949e-07H277.354ZM326.773 208.801C327.295 208.823 327.815 208.841 328.335 208.856C327.296 208.826 326.254 208.782 325.209 208.726L326.773 208.801ZM234.415 206.367C233.952 206.51 233.487 206.65 233.021 206.786C233.973 206.508 234.919 206.216 235.858 205.909L234.415 206.367ZM168.824 187.118C168.903 187.223 168.983 187.332 169.063 187.445C168.983 187.332 168.903 187.223 168.824 187.118ZM133.784 156.482H133.785H133.784ZM432.548 82.3047C432.538 82.2299 432.531 82.1549 432.521 82.0801L432.502 81.9512C432.518 82.069 432.533 82.1869 432.548 82.3047Z" fill="#F4EDE8"/>
<path d="M74.8334 67.8655C57.8941 78.5635 55.1596 90.2494 54.4261 110.384C53.6926 130.52 74.8334 156.437 74.8334 156.437C74.8334 156.437 43.5154 171.535 37.7826 176.567C32.0499 181.6 -3.82592 245.767 0.334898 251.219C4.49571 256.672 29.8771 260.446 29.8771 260.446L63.5801 206.764L56.8849 267.156C56.8849 267.156 7.18142 350.548 14.0847 356.034C20.9879 361.52 51.3623 362.727 56.8849 361.52C62.4075 360.314 93.5383 290.642 93.5383 290.642C93.5383 290.642 109.681 358.936 116.253 361.679C122.825 364.422 154.4 362.789 158.448 357.745C162.495 352.701 135.582 277.717 135.582 277.717L139.724 206.764C139.724 206.764 165.937 263.801 168.434 263.801C170.93 263.801 186.742 262.124 189.654 257.51C192.567 252.897 176.34 195.859 168.434 186.633C160.528 177.406 129.738 159.792 129.738 159.792C129.738 159.792 164.141 133.721 162.609 110.384C161.077 87.048 156.777 73.268 135.582 63.7508C114.387 54.2335 91.7727 57.1675 74.8334 67.8655Z" fill="#F4EDE8"/>
</svg>
