<svg width="15" height="14" viewBox="0 0 15 14" fill="none" xmlns="http://www.w3.org/2000/svg">
<path fill-rule="evenodd" clip-rule="evenodd" d="M0.138841 0.119116C0.260645 -0.0402535 13.7744 -0.0394804 13.8927 0.120093C13.9328 0.174278 13.9463 0.568254 13.9484 1.06638C14.0107 2.39255 14.0527 9.56763 13.9777 11.5097C14.0676 11.7183 13.9358 13.0247 13.8185 13.1035C13.6946 13.1845 0.35805 13.2433 0.1447 13.1035C-0.068284 12.9637 0.0167704 11.665 0.0167704 11.665C0.0182101 11.665 0.0227903 11.6642 0.0304422 11.664C-0.00246345 10.3371 0.0260976 5.32041 0.0724344 2.62302C0.0630785 1.68341 0.0586757 0.226489 0.138841 0.119116ZM1.73064 3.41208C1.76047 6.18047 1.76322 10.3908 1.70329 11.6357C4.39112 11.5871 9.61456 11.4958 12.2922 11.4746C12.2681 10.0591 12.2918 6.0594 12.3293 3.41208H1.73064ZM2.8322 7.98533C2.93713 7.9669 4.71891 7.9667 4.82439 7.98533C4.92925 8.00396 5.0054 10.009 4.82439 10.041C4.64312 10.073 2.83302 10.0595 2.72771 10.041C2.62296 10.0225 2.72734 8.00716 2.8322 7.98533ZM5.98161 7.98533C6.08975 7.96698 7.86403 7.96678 7.97283 7.98533C8.07768 8.00396 8.15384 10.009 7.97283 10.041C7.78961 10.0729 5.98091 10.0595 5.87615 10.041C5.77179 10.0188 5.87676 8.00374 5.98161 7.98533ZM9.13005 7.98533C9.23501 7.9669 11.0174 7.96669 11.1222 7.98533C11.227 8.00644 11.3029 10.0075 11.1222 10.041C10.9414 10.073 9.1336 10.0595 9.02556 10.041C8.92072 10.0225 9.0251 8.00393 9.13005 7.98533ZM2.8322 4.83787C2.93715 4.81944 4.71953 4.81923 4.82439 4.83787C4.92923 4.8568 5.00534 6.86028 4.82439 6.89255C4.64337 6.92457 2.83255 6.91108 2.72771 6.89255C2.62306 6.87353 2.72738 4.86094 2.8322 4.83787ZM5.98161 4.83787C6.08898 4.8195 7.86479 4.8193 7.97283 4.83787C8.07768 4.8565 8.15384 6.86054 7.97283 6.89255C7.79008 6.9245 5.98093 6.91107 5.87615 6.89255C5.77196 6.86904 5.87679 4.85627 5.98161 4.83787ZM9.13005 4.83787C9.23501 4.81944 11.0174 4.81923 11.1222 4.83787C11.2269 4.86018 11.3027 6.85839 11.1222 6.89255C10.9414 6.92455 9.13275 6.91106 9.02556 6.89255C8.92075 6.87403 9.02513 4.85755 9.13005 4.83787Z" fill="#322924"/>
</svg>
