<svg width="379" height="352" viewBox="0 0 379 352" fill="none" xmlns="http://www.w3.org/2000/svg">
<path d="M3.35083 2.85547C6.47322 -0.837229 350.301 -0.94896 374.259 2.52148C376.017 2.72068 377.255 3.15409 377.518 3.87988C378.639 6.98171 379.553 342.852 377.618 348.181C376.24 351.977 366.019 351.927 359.85 350.47C344.011 351.268 84.0961 351.843 18.3167 350.888C14.5909 351.729 9.16169 351.426 5.25806 350.574C4.19835 350.522 3.55168 350.47 3.35083 350.411C2.80707 350.253 2.33995 349.953 1.94067 349.543C1.14366 349.174 0.612896 348.769 0.454346 348.348C0.403247 348.211 0.356499 347.39 0.314697 345.948C-0.0838269 343.949 -0.0801439 341.551 0.196533 339.291C-0.272403 300.265 0.161543 145.23 0.824463 68.1494C-1.18742 47.5172 0.807734 5.86605 3.35083 2.85547ZM355.387 79.7969C317.972 82.6823 91.9638 84.551 23.1506 81.2324C23.6125 156.61 23.7372 285.21 23.0032 331.324C91.3041 330.966 316.113 331.616 354.886 332.352C354.547 288.202 354.856 161.697 355.387 79.7969ZM60.6145 223.432C63.8807 222.858 119.338 222.852 122.606 223.432C125.869 224.012 128.239 286.403 122.606 287.399C116.969 288.396 60.6146 287.976 57.3518 287.399C54.0891 286.822 57.3482 224.007 60.6145 223.432ZM158.615 223.432C161.881 222.858 217.338 222.852 220.606 223.432C223.869 224.012 226.239 286.403 220.606 287.399C214.969 288.396 158.615 287.976 155.352 287.399C152.089 286.822 155.348 224.007 158.615 223.432ZM256.615 223.432C259.881 222.858 315.338 222.852 318.606 223.432C321.869 224.012 324.239 286.403 318.606 287.399C312.969 288.396 256.615 287.976 253.352 287.399C250.089 286.822 253.348 224.007 256.615 223.432ZM60.6145 125.432C63.8807 124.858 119.338 124.852 122.606 125.432C125.869 126.012 128.239 188.403 122.606 189.399C116.969 190.396 60.6146 189.976 57.3518 189.399C54.0891 188.822 57.3482 126.007 60.6145 125.432ZM158.615 125.432C161.881 124.858 217.338 124.852 220.606 125.432C223.869 126.012 226.239 188.403 220.606 189.399C214.969 190.396 158.615 189.976 155.352 189.399C152.089 188.822 155.348 126.007 158.615 125.432ZM256.615 125.432C259.881 124.858 315.338 124.852 318.606 125.432C321.869 126.012 324.239 188.403 318.606 189.399C312.969 190.396 256.615 189.976 253.352 189.399C250.089 188.822 253.348 126.007 256.615 125.432Z" fill="#DAE16B"/>
</svg>
