<svg width="123" height="33" viewBox="0 0 123 33" fill="none" xmlns="http://www.w3.org/2000/svg">
<path d="M122.036 6.54026C122.498 7.79397 120.168 24.4424 119.421 25.2329C118.396 26.3186 114.03 27.7707 113.374 27.7758C112.857 27.7797 112.592 29.9369 112.877 30.4737C113.274 31.2195 114.576 32.0556 115.478 32.6105C112.384 32.6341 110.712 31.6079 109.83 31.0666L109.781 31.0364C109.447 30.4999 109.279 28.5272 109.427 27.8059C107.868 26.7398 8.34932 27.8059 3.71512 25.2329C0.921449 23.6818 0.193374 10.5583 0.010603 8.94277C-0.233092 6.78871 3.9224 1.7369 6.42185 0.73543C9.81683 -0.624862 110.11 0.22549 113.92 0.736179C117.509 1.21716 121.64 5.46463 122.036 6.54026Z" fill="#DAE16B"/>
</svg>
