<svg width="47" height="40" viewBox="0 0 47 40" fill="none" xmlns="http://www.w3.org/2000/svg">
<path d="M46.3269 8.92408C46.9941 10.736 45.314 27.2708 44.2351 28.4132C42.7532 29.9825 34.7559 32.3814 33.8072 32.3886C33.0603 32.3943 32.6771 35.5121 33.09 36.2879C33.6636 37.3657 35.5446 38.5741 36.8485 39.3761C32.2917 39.4109 29.8694 37.8704 28.6143 37.1011C28.1328 36.3258 27.8893 33.4746 28.1031 32.4322C25.8504 30.8914 6.90315 30.4113 5.39527 28.7096C4.02425 27.1624 0.305414 14.7273 0.041262 12.3924C-0.310941 9.27926 1.62689 3.55716 3.69892 2.23924C8.15903 -0.597603 29.0901 -0.202412 34.597 0.535667C39.7835 1.23081 45.7544 7.36951 46.3269 8.92408Z" fill="#DAE16B"/>
</svg>
