<svg width="851" height="752" viewBox="0 0 851 752" fill="none" xmlns="http://www.w3.org/2000/svg">
<path d="M657.179 15.5964C677.725 9.46198 840.28 -3.66674 850.667 0.973058C860.937 5.74716 501 561.956 501 561.956C460.5 619 436.951 652 418.503 677.532C366.5 749.5 305.053 793.5 225.04 692.13C222.696 697.29 223.385 691.4 225.04 692.13C124 577.5 75.1279 473.5 0 365.247C17.7663 355.452 147.191 357.406 164.772 365.247C182.356 373.09 276.447 561.938 305.053 561.956C325.084 561.956 391.45 455.839 403.5 438.5C492.172 290.943 566.966 162.315 657.179 15.5964Z" fill="#D9D9D9"/>
</svg>
