<svg width="27" height="26" viewBox="0 0 27 26" fill="none" xmlns="http://www.w3.org/2000/svg">
<path d="M13.1903 7.87588C14.2979 7.87588 17.8825 0.434081 18.6938 0.257071C19.5051 0.0800615 25.82 0.0475762 26.2076 0.257071C26.5951 0.466566 16.8593 11.0159 16.8593 12.5681C16.8593 14.1203 27.1813 24.6966 26.385 25.1271C25.5887 25.5577 19.4609 25.4178 18.7989 25.1271C18.1369 24.8365 14.0537 17.2178 13.1903 17.2947C12.3269 17.3717 8.16991 24.8562 7.54552 25.1271C6.92114 25.3981 0.702642 25.4854 0.0317891 25.1271C-0.639063 24.7688 9.52128 14.1203 9.52128 12.5681C9.52128 11.0159 -0.476636 0.636741 0.209211 0.257071C0.895058 -0.122599 7.07641 -0.0466871 7.75739 0.257071C8.43838 0.560829 12.0827 7.87588 13.1903 7.87588Z" fill="#7D726C"/>
</svg>
