<svg width="22" height="25" viewBox="0 0 22 25" fill="none" xmlns="http://www.w3.org/2000/svg">
<ellipse cx="3.30725" cy="11.8064" rx="3.30725" ry="3.11496" fill="#D9D9D9"/>
<ellipse cx="17.4031" cy="4.23105" rx="3.57109" ry="3.54562" transform="rotate(12.4275 17.4031 4.23105)" fill="#D9D9D9"/>
<path d="M20.514 19.5705C20.955 21.4685 19.7231 23.3765 17.7624 23.8321C15.8017 24.2877 13.9579 23.3673 13.5169 21.4692C13.0759 19.5711 14.2047 17.4141 16.1653 16.9586C18.126 16.503 20.073 17.6724 20.514 19.5705Z" fill="#D9D9D9"/>
<path d="M13.5068 16.54C12.9456 17.0337 12.5423 17.688 12.3516 18.4121L6.66016 15.0811C7.28824 14.6508 7.76796 14.0412 8.04102 13.3408L13.5068 16.54ZM12.3506 6.01172C12.5397 6.73626 12.9431 7.38992 13.5029 7.88477L8.16797 11.0068C7.9678 10.2573 7.55274 9.61735 7.00293 9.14062L12.3506 6.01172Z" fill="#D9D9D9"/>
</svg>
