<svg width="42" height="38" viewBox="0 0 42 38" fill="none" xmlns="http://www.w3.org/2000/svg">
<path d="M14.7914 32.1872C14.0443 32.398 6.57096 32.3092 6.13829 32.1872C5.70562 32.0652 6.13781 18.7754 6.57094 18.654C7.00408 18.5327 14.3586 18.5313 14.7914 18.654C15.2241 18.7767 15.5384 31.9764 14.7914 32.1872Z" fill="#DAE16B"/>
<path d="M2.56551 37.3987C2.34852 37.9773 0.177759 37.7335 0.0520826 37.3987C-0.0735942 37.0638 0.051943 0.584332 0.177754 0.251223C0.303565 -0.081885 2.43981 -0.0855921 2.56551 0.251223C2.69121 0.588039 2.7825 36.82 2.56551 37.3987Z" fill="#DAE16B"/>
<path d="M0.384033 37.6365C-0.253628 37.4505 0.0149727 35.5899 0.384033 35.4821C0.753094 35.3744 40.9549 35.482 41.322 35.5899C41.6891 35.6977 41.6932 37.5288 41.322 37.6365C40.9508 37.7442 1.02169 37.8225 0.384033 37.6365Z" fill="#DAE16B"/>
<path d="M26.0927 32.0471C25.2728 32.4938 18.0902 32.3056 17.6154 32.0471C17.1405 31.7886 17.6155 3.83857 18.0902 3.37166C18.5648 2.90475 25.6178 3.11166 26.0927 3.37166C26.5675 3.63166 26.9125 31.6004 26.0927 32.0471Z" fill="#DAE16B"/>
<path d="M37.5526 32.1285C36.7328 32.4403 29.5501 32.309 29.0753 32.1285C28.6005 31.9481 29.0754 12.4379 29.5501 12.112C30.0248 11.786 37.0777 11.9305 37.5526 12.112C38.0275 12.2934 38.3724 31.8168 37.5526 32.1285Z" fill="#DAE16B"/>
</svg>
