<svg width="22" height="13" viewBox="0 0 22 13" fill="none" xmlns="http://www.w3.org/2000/svg">
<path d="M10.8815 0.012992C13.0681 -0.0681358 14.4901 0.181185 17.7321 2.19463C20.858 4.13602 21.3962 5.56022 21.7711 6.00713C21.7941 6.01043 21.8091 6.0139 21.816 6.01787C21.8355 6.0295 21.8379 6.05352 21.8258 6.08819C21.8443 6.12847 21.835 6.14973 21.7936 6.15264C21.4088 6.78842 18.527 9.67915 16.7584 10.9476C15.3926 11.9271 13.8615 12.906 11.2545 12.9905C8.4035 13.0829 7.28304 12.4948 4.58655 10.5071C1.94907 8.56302 0.486482 7.32802 0.0718984 6.86944C0.049656 6.86606 0.0346366 6.86297 0.0279531 6.8587C0.00524337 6.84396 -0.00136531 6.81523 0.00451561 6.77471C-0.00345496 6.75355 -0.00108367 6.73897 0.0133047 6.73077C0.189298 6.15708 2.21802 3.95138 3.9801 2.58428C5.34241 1.52733 6.98987 0.157426 10.8815 0.012992ZM10.8278 1.76592C8.38381 1.8588 7.35369 2.87488 6.50159 3.6585C5.39947 4.67203 4.13267 6.31009 4.02405 6.7376C4.01505 6.74369 4.01406 6.75496 4.01916 6.7708C4.01562 6.80093 4.01961 6.82219 4.03381 6.8333C4.03797 6.83652 4.04724 6.83949 4.06116 6.84209C4.32313 7.18595 4.82557 8.09093 6.48889 9.55205C8.18932 11.0458 9.31568 11.5105 11.1061 11.4524C12.7435 11.3994 14.1274 10.5026 14.9821 9.77666C15.0058 9.75084 17.7659 6.75024 17.7692 6.48174C17.7698 6.21462 17.1084 4.88115 15.1383 3.42022C13.0951 1.90506 12.201 1.71374 10.8278 1.76592Z" fill="#F4EDE8"/>
<path d="M14.5256 6.13915C14.1432 4.78051 12.6135 3.42188 11.0838 3.42188C8.02441 3.76153 8.02441 5.73156 8.02441 6.81847C8.02441 8.17711 9.93652 9.87541 11.4662 9.53575C12.9959 9.19609 14.908 7.49779 14.5256 6.13915Z" fill="#F4EDE8"/>
</svg>
