<svg width="14" height="25" viewBox="0 0 14 25" fill="none" xmlns="http://www.w3.org/2000/svg">
<path d="M2.54004 19.5107C3.22668 19.5107 3.88949 19.5223 4.52734 19.5459C5.18949 19.5695 5.76673 19.6051 6.25879 19.6523L6.31836 19.6582L6.3418 19.7139C6.35864 19.7544 6.37245 19.8138 6.38477 19.8848C6.3975 19.9582 6.4105 20.0522 6.42285 20.165C6.4475 20.3902 6.47165 20.6968 6.49609 21.084L6.54395 21.6797C6.58544 22.2867 6.60645 22.9269 6.60645 23.5996V23.666L6.54492 23.6914C6.36477 23.7656 6.10026 23.8382 5.75586 23.9092C5.41062 23.9803 5.05305 24.0396 4.68359 24.0869C4.31535 24.1575 3.97046 24.2048 3.64941 24.2285C3.33572 24.2748 3.11119 24.2988 2.98145 24.2988C2.94422 24.2988 2.90582 24.2881 2.87207 24.2744C2.83687 24.2601 2.79796 24.2397 2.75586 24.2148C2.67128 24.1648 2.56618 24.0913 2.44238 23.9961V23.9951C2.22352 23.8315 2.07246 23.711 1.99414 23.6357L1.96777 23.6113L1.96387 23.5752C1.91452 23.1483 1.87707 22.6161 1.85254 21.9795C1.82802 21.3431 1.81641 20.7184 1.81641 20.1055V20.0566L1.85449 20.0264L2.47852 19.5322L2.50586 19.5107H2.54004ZM6.35938 0.0996094C7.00073 0.0996094 7.70253 0.158539 8.46387 0.276367H8.46484C9.23001 0.371257 9.97128 0.537081 10.6875 0.774414C11.4068 1.0128 12.018 1.33627 12.5186 1.74512L12.5332 1.75684L12.542 1.77246C12.6709 1.99553 12.7969 2.33495 12.9199 2.78418C13.0433 3.23491 13.141 3.73236 13.2148 4.27539C13.3139 4.82259 13.3633 5.38164 13.3633 5.95215C13.3633 6.33281 13.3387 6.70196 13.2891 7.05957C13.2391 7.42005 13.1519 7.74724 13.0254 8.03906C12.7252 8.75988 12.2259 9.45245 11.5332 10.1182L11.5322 10.1201L11.5312 10.1191C10.8416 10.7582 10.0786 11.3497 9.24219 11.8936C8.43233 12.436 7.65925 12.909 6.92188 13.3105L6.9209 13.3096C6.24693 13.6892 5.71315 13.9641 5.32129 14.1338V16.5684L5.26465 16.5957C5.06218 16.693 4.79946 16.7889 4.47852 16.8838C4.15446 16.9796 3.8415 17.0393 3.54004 17.0635L3.5 17.0664L3.46875 17.041L2.9541 16.6172L2.92773 16.5957L2.9209 16.5635L2.07617 12.9277L2.06055 12.8633L2.11426 12.8242C3.06626 12.1204 3.92008 11.4167 4.67578 10.7139C5.4328 10.0098 6.07938 9.35375 6.61523 8.74512C7.15284 8.13449 7.5794 7.61888 7.89551 7.19824L7.89648 7.19727C8.22329 6.771 8.42956 6.44736 8.52832 6.22559C8.40822 5.80151 8.22192 5.38677 7.96484 4.98242L7.96094 4.97656C7.71889 4.53461 7.46643 4.16433 7.20312 3.86523C6.94741 3.57479 6.72059 3.39231 6.52539 3.30273C5.97654 3.37279 5.42705 3.47659 4.87793 3.61426C4.31856 3.75452 3.79589 3.91791 3.31055 4.10449C2.8227 4.29205 2.40886 4.4677 2.06934 4.63086L2.06445 4.63281C1.72169 4.77399 1.4734 4.86955 1.32227 4.91797L1.25 4.94141L1.20898 4.87793L0.180664 3.3252L0.131836 3.25195L0.198242 3.19434C0.691458 2.76772 1.29425 2.31844 2.00586 1.84668L2.27539 1.66406C2.90665 1.24663 3.55693 0.892216 4.22656 0.601562C4.99434 0.268318 5.70579 0.0996685 6.35938 0.0996094Z" fill="#F4EDE8" stroke="#F4EDE8" stroke-width="0.2"/>
</svg>
