<svg width="30" height="19" viewBox="0 0 30 19" fill="none" xmlns="http://www.w3.org/2000/svg">
<path d="M0.273336 0.0361198C0.308554 -0.303863 3.44773 1.80074 7.78017 4.4746C11.4785 6.75716 14.1737 9.28239 14.1737 9.62108C14.1703 9.96181 9.88401 13.0049 8.21767 14.2099C5.81904 15.9445 0.608562 19.1377 0.273336 18.8838C-0.0616529 18.6221 -0.119428 4.16358 0.273336 0.0361198ZM21.4726 3.54491C24.0705 1.81161 28.498 -0.232225 28.8612 0.0214714C29.2243 0.27524 28.8612 14.6552 28.8612 18.8564C28.8612 19.2006 25.8802 17.4038 21.4726 14.1894C17.6967 11.4359 14.1737 9.92125 14.1737 9.57714C14.1755 9.23177 19.6672 4.74942 21.4726 3.54491Z" fill="#F984CA"/>
</svg>
