<svg width="57" height="39" viewBox="0 0 57 39" fill="none" xmlns="http://www.w3.org/2000/svg">
<path d="M25.1576 5.35345C22.6179 7.10569 21.0595 10.4598 21.0595 14.8234C21.0595 19.1869 25.1576 22.3663 25.1576 22.3663C25.1576 22.3663 17.9603 26.4878 17.1008 27.3121C16.2413 28.1364 13.3643 36.9978 13.9881 37.8909L42.3725 38.9212C42.3064 37.818 41.5069 29.9921 40.3216 28.4809C39.1363 26.9696 33.3893 22.9158 33.3893 22.9158C33.3893 22.9158 38.0447 20.6218 38.4842 14.8234C38.9237 9.0249 35.6616 5.92712 33.3893 4.81104C31.117 3.69496 27.6973 3.60122 25.1576 5.35345Z" fill="#B036FF"/>
<path d="M38.6534 1.35317C41.2894 -0.399018 44.8387 -0.30482 47.1973 0.811178C49.5559 1.92729 52.9425 5.02461 52.4864 10.8229C52.03 16.6211 47.1973 18.9157 47.1973 18.9157C47.2251 18.9324 51.9931 21.8053 53.2198 23.3122C54.45 24.8245 56.4535 33.816 56.5225 34.9206L45.0459 34.5182C45.0063 34.2418 44.9656 33.9622 44.9219 33.6823C44.7369 32.4968 44.5063 31.2332 44.2295 30.1344C44.0915 29.5864 43.9284 29.028 43.7364 28.5163C43.5635 28.0559 43.2846 27.4053 42.834 26.8307C42.308 26.1601 41.4846 25.431 40.792 24.8493C40.0903 24.2599 39.2907 23.6354 38.5352 23.0592C39.9936 21.3462 41.4076 18.8197 41.668 15.3844C42.1255 9.34717 39.3529 5.43315 36.5664 3.3561C37.1592 2.5542 37.8596 1.8808 38.6534 1.35317ZM11.6524 1.35317C14.2884 -0.399018 17.8377 -0.30482 20.1963 0.811178C21.139 1.25725 22.245 2.02024 23.2051 3.14516C19.6444 5.68471 17.8682 10.1438 17.8682 15.1432C17.8683 17.9592 19.0305 20.2941 20.1524 21.9098C20.0427 21.9747 19.9321 22.0403 19.8213 22.1061C18.8592 22.678 17.8508 23.2874 17.0196 23.8122C16.6056 24.0735 16.2146 24.327 15.8877 24.5514C15.6883 24.6884 15.4079 24.8846 15.1455 25.1032L14.8926 25.3288C14.326 25.8722 13.9702 26.5964 13.834 26.8717C13.621 27.3025 13.4045 27.808 13.1973 28.3307C12.7795 29.3846 12.3319 30.6788 11.9385 31.9557C11.7 32.7298 11.4743 33.5262 11.2823 34.2819L0.0586335 33.8903C-0.587715 32.9957 4.30376 23.0234 5.19633 22.1979C6.08581 21.3762 11.6164 18.3853 11.6524 18.3659C11.6303 18.3493 7.3987 15.1749 7.39848 10.8229C7.39851 6.45952 9.01643 3.10544 11.6524 1.35317ZM34.3291 23.9088C34.5146 24.0432 34.7211 24.195 34.9434 24.3581C34.7122 24.1885 34.4978 24.0316 34.3067 23.8932L34.3291 23.9088ZM33.5889 23.1276L33.5381 23.154C33.6082 23.1142 33.702 23.0608 33.8135 22.9909C33.7266 23.0454 33.6513 23.0916 33.5889 23.1276Z" fill="#B036FF"/>
</svg>
