<svg width="63" height="46" viewBox="0 0 63 46" fill="none" xmlns="http://www.w3.org/2000/svg">
<path d="M40.8232 3.10449C43.9626 1.01781 48.0803 1.14993 50.8389 2.45508C53.6244 3.7732 57.4973 7.38467 56.9814 13.9414C56.7195 17.2693 55.1926 19.6053 53.7451 21.0908C53.4642 21.3792 53.1847 21.6351 52.918 21.8623C53.1323 22.0027 53.3569 22.1492 53.585 22.3027C54.2754 22.7676 55.0205 23.2911 55.6797 23.8027C56.3132 24.2945 56.96 24.8459 57.3828 25.3652C57.6691 25.7169 57.9004 26.1759 58.085 26.5957C58.282 27.0438 58.4772 27.5691 58.666 28.1289C59.0443 29.2504 59.4226 30.59 59.7588 31.8955C60.0959 33.2045 60.3961 34.5005 60.6172 35.543C60.8264 36.5296 60.9941 37.4186 61.0195 37.8281C61.0458 38.2504 60.8918 38.6646 60.5967 38.9678C60.3016 39.2707 59.8924 39.4347 59.4697 39.4199L30.0078 38.3896C29.546 38.3735 29.117 38.1456 28.8457 37.7715C28.5142 37.3143 28.5002 36.8145 28.501 36.6152C28.502 36.3536 28.5425 36.0921 28.5889 35.8652C28.6831 35.4044 28.8513 34.8621 29.0508 34.3008C29.4544 33.1652 30.0539 31.7616 30.6895 30.3887C31.3273 29.0107 32.0162 27.6313 32.6064 26.5361C32.9009 25.9899 33.1781 25.5008 33.417 25.1133C33.6159 24.7908 33.892 24.3625 34.1797 24.0967L34.3242 23.9707C34.6923 23.6679 35.2579 23.306 35.7969 22.9746C36.4648 22.5639 37.2604 22.1008 38.0176 21.6699C38.3982 21.4533 38.7716 21.2427 39.1172 21.0498C38.8712 20.7851 38.6106 20.4896 38.3516 20.1631C37.1902 18.6993 35.8994 16.4883 35.8994 13.8232C35.8994 9.10805 37.6573 5.20888 40.8232 3.10449Z" fill="#B036FF" stroke="black" stroke-width="3" stroke-linejoin="round"/>
<path d="M13.8223 3.10449C16.9616 1.01781 21.0793 1.14993 23.8379 2.45508C26.6235 3.7732 30.4963 7.38467 29.9805 13.9414C29.7185 17.2693 28.1916 19.6053 26.7441 21.0908C26.4632 21.3792 26.1837 21.6351 25.917 21.8623C26.1313 22.0027 26.356 22.1492 26.584 22.3027C27.2744 22.7676 28.0196 23.2911 28.6787 23.8027C29.3122 24.2945 29.959 24.8459 30.3818 25.3652C30.6682 25.7169 30.8994 26.1759 31.084 26.5957C31.281 27.0438 31.4762 27.5691 31.665 28.1289C32.0433 29.2504 32.4216 30.59 32.7578 31.8955C33.0949 33.2045 33.3952 34.5005 33.6162 35.543C33.8254 36.5296 33.9931 37.4186 34.0186 37.8281C34.0448 38.2504 33.8908 38.6646 33.5957 38.9678C33.3007 39.2707 32.8914 39.4347 32.4688 39.4199L3.00684 38.3896C2.54499 38.3735 2.11606 38.1456 1.84473 37.7715C1.51325 37.3143 1.49921 36.8145 1.5 36.6152C1.50106 36.3536 1.54152 36.0921 1.58789 35.8652C1.68213 35.4044 1.8503 34.8621 2.0498 34.3008C2.45342 33.1652 3.05291 31.7616 3.68848 30.3887C4.32636 29.0107 5.01522 27.6313 5.60547 26.5361C5.89989 25.9899 6.1771 25.5008 6.41602 25.1133C6.61489 24.7908 6.891 24.3625 7.17871 24.0967L7.32324 23.9707C7.69137 23.6679 8.25695 23.306 8.7959 22.9746C9.46387 22.5639 10.2595 22.1008 11.0166 21.6699C11.3972 21.4533 11.7707 21.2427 12.1162 21.0498C11.8702 20.7851 11.6097 20.4896 11.3506 20.1631C10.1892 18.6993 8.89844 16.4883 8.89844 13.8232C8.89847 9.10805 10.6563 5.20888 13.8223 3.10449Z" fill="#B036FF" stroke="black" stroke-width="3" stroke-linejoin="round"/>
<path d="M27.3057 7.43945C30.3575 5.33388 34.3665 5.46673 37.0508 6.78516C39.7652 8.11849 43.4737 11.7354 42.9795 18.2568C42.7284 21.569 41.264 23.9006 39.8652 25.3906C39.5593 25.7166 39.2551 26.0015 38.9678 26.25C39.3816 26.5544 39.8429 26.8969 40.3174 27.2568C41.1191 27.8651 41.9707 28.5303 42.7031 29.1455C43.4025 29.733 44.0976 30.3595 44.502 30.875C44.7923 31.2452 44.9984 31.7037 45.1514 32.1113C45.3135 32.5432 45.4577 33.0358 45.5869 33.5488C45.8456 34.5759 46.0677 35.7811 46.249 36.9434C46.6111 39.2634 46.8337 41.5442 46.8701 42.1523C46.8953 42.5743 46.7407 42.9876 46.4453 43.29C46.1499 43.5923 45.7407 43.7555 45.3184 43.7402L16.9336 42.71C16.4633 42.6928 16.0284 42.4561 15.7588 42.0703C15.5045 41.7063 15.4431 41.319 15.4209 41.124C15.3943 40.8899 15.3969 40.6525 15.4102 40.4404C15.437 40.0128 15.5166 39.5142 15.6201 39.001C15.8291 37.9643 16.1725 36.6947 16.5547 35.4541C16.938 34.2102 17.3714 32.9595 17.7695 31.9551C17.9679 31.4548 18.1658 30.9957 18.3506 30.6221C18.4992 30.3215 18.7393 29.8597 19.0625 29.5498C19.2696 29.3512 19.5718 29.1337 19.8447 28.9463C20.1463 28.7393 20.5165 28.4991 20.9219 28.2432C21.7341 27.7304 22.7272 27.1296 23.6846 26.5605C24.3952 26.1381 25.091 25.7308 25.6846 25.3848C25.4383 25.1113 25.1774 24.8035 24.917 24.4629C23.7954 22.9955 22.5596 20.7911 22.5596 18.1436C22.5596 13.4505 24.2421 9.55324 27.3057 7.43945Z" fill="#B036FF" stroke="black" stroke-width="3" stroke-linejoin="round"/>
</svg>
