<svg width="57" height="102" viewBox="0 0 57 102" fill="none" xmlns="http://www.w3.org/2000/svg">
<path fill-rule="evenodd" clip-rule="evenodd" d="M10.5965 80.9659C13.4652 80.9659 16.2335 81.0148 18.8995 81.1134C20.9758 81.1873 22.8534 81.2896 24.5334 81.4195L26.1467 81.5592L26.6449 81.6061L26.8371 82.0686C26.9269 82.2843 26.9908 82.5729 27.0426 82.8718C27.0978 83.1902 27.1504 83.5901 27.2024 84.065C27.306 85.0109 27.4089 86.2927 27.5107 87.9048L27.6191 89.1415C27.8557 92.0541 27.9733 95.1526 27.9733 98.4354V98.994L27.4571 99.2062C26.6688 99.531 25.5352 99.8383 24.091 100.136C22.6417 100.434 21.1423 100.682 19.5932 100.881C18.0652 101.173 16.6301 101.371 15.2887 101.472C13.9786 101.665 13.0117 101.771 12.4354 101.771C12.2015 101.771 11.9857 101.702 11.8254 101.637C11.6522 101.567 11.4691 101.472 11.2825 101.361C10.9108 101.141 10.4626 100.826 9.94409 100.427C9.02906 99.7433 8.3768 99.2241 8.02811 98.889L7.81138 98.6812L7.77674 98.384C7.5692 96.5888 7.41569 94.3572 7.31311 91.6954C7.2106 89.0353 7.15894 86.4233 7.15894 83.8606V83.4573L10.0793 81.1458L10.3072 80.9659H10.5965Z" fill="url(#paint0_linear_1803_31714)"/>
<path fill-rule="evenodd" clip-rule="evenodd" d="M26.5265 0C29.2319 0 32.1863 0.250317 35.3858 0.746281L35.3847 0.747398C38.5945 1.14704 41.7032 1.84349 44.7098 2.83989C47.5603 3.78457 50.0207 5.04663 52.0755 6.63721L52.481 6.96008L52.5994 7.05616L52.6754 7.1891C53.2406 8.16703 53.774 9.62451 54.2897 11.5081C54.8087 13.4036 55.221 15.4891 55.5309 17.7622C55.9485 20.0696 56.1565 22.4258 56.1566 24.8295C56.1566 26.4359 56.0524 27.9961 55.8426 29.5083C55.6296 31.0436 55.2547 32.4432 54.7098 33.7C53.4305 36.7683 51.3142 39.7027 48.3954 42.5079L48.3843 42.5179C45.4881 45.2019 42.2846 47.6847 38.7753 49.9662C35.3914 52.2326 32.1563 54.2066 29.0703 55.8873C26.397 57.3932 24.2406 58.5108 22.613 59.2333V69.3706L22.1393 69.5974C21.2672 70.0165 20.149 70.4237 18.7989 70.823C17.4229 71.2299 16.089 71.4872 14.7994 71.5905L14.4631 71.6184L12.0578 69.6365L11.84 69.4567L11.7752 69.1818L8.12866 53.4853L8.56995 53.1591C12.5305 50.2311 16.0796 47.3069 19.219 44.387C22.3694 41.4569 25.0554 38.7286 27.2795 36.2025C29.5184 33.6595 31.2899 31.518 32.5995 29.7753L32.604 29.7686C33.8959 28.0836 34.7202 26.8159 35.1344 25.9433C34.6439 24.2647 33.8929 22.6194 32.8688 21.0087L32.8543 20.9852L32.8408 20.9618C31.8422 19.1383 30.8035 17.6213 29.7295 16.4014C28.7301 15.2663 27.8711 14.5632 27.1566 14.2062C24.9221 14.4959 22.6867 14.9212 20.4501 15.482C18.1308 16.0635 15.9669 16.7401 13.9593 17.5119C11.9309 18.2917 10.2167 19.0195 8.81349 19.6938L8.79227 19.7038L8.76992 19.7128C7.34059 20.3015 6.29205 20.7061 5.64403 20.9137L5.04187 21.1059L0 13.4912L0.555242 13.0108C2.37159 11.4397 4.53664 9.79913 7.04722 8.08955L8.14541 7.35221C11.145 5.2661 14.2512 3.52492 17.4639 2.13048C20.7041 0.724101 23.7286 4.73918e-05 26.5265 0ZM53.8484 13.1638C53.9033 13.3982 53.9562 13.6355 54.0082 13.8755C53.9019 13.3842 53.7905 12.9044 53.6719 12.4365L53.8484 13.1638Z" fill="url(#paint1_linear_1803_31714)"/>
<defs>
<linearGradient id="paint0_linear_1803_31714" x1="28.0783" y1="0" x2="28.0783" y2="101.771" gradientUnits="userSpaceOnUse">
<stop stop-color="#D9D9D9"/>
<stop offset="1" stop-color="#9F9F9F"/>
</linearGradient>
<linearGradient id="paint1_linear_1803_31714" x1="28.0783" y1="0" x2="28.0783" y2="101.771" gradientUnits="userSpaceOnUse">
<stop stop-color="#D9D9D9"/>
<stop offset="1" stop-color="#9F9F9F"/>
</linearGradient>
</defs>
</svg>
