<svg width="190" height="305" viewBox="0 0 190 305" fill="none" xmlns="http://www.w3.org/2000/svg">
<path d="M74.8334 9.86549C57.8941 20.5635 55.1596 32.2494 54.4261 52.3845C53.6926 72.5195 74.8334 98.4368 74.8334 98.4368C74.8334 98.4368 43.5154 113.535 37.7826 118.567C32.0499 123.6 -3.82592 187.767 0.334898 193.219C4.49571 198.672 29.8771 202.446 29.8771 202.446L63.5801 148.764L56.8849 209.156C56.8849 209.156 7.18142 292.548 14.0847 298.034C20.9879 303.52 51.3623 304.727 56.8849 303.52C62.4075 302.314 93.5383 232.642 93.5383 232.642C93.5383 232.642 109.681 300.936 116.253 303.679C122.825 306.422 154.4 304.789 158.448 299.745C162.495 294.701 135.582 219.717 135.582 219.717L139.724 148.764C139.724 148.764 165.937 205.801 168.434 205.801C170.93 205.801 186.742 204.124 189.654 199.51C192.567 194.897 176.34 137.859 168.434 128.633C160.528 119.406 129.738 101.792 129.738 101.792C129.738 101.792 164.141 75.7209 162.609 52.3845C161.077 29.048 156.777 15.268 135.582 5.75075C114.387 -3.76651 91.7727 -0.832498 74.8334 9.86549Z" fill="#F4EDE8"/>
</svg>
