<svg width="34" height="28" viewBox="0 0 34 28" fill="none" xmlns="http://www.w3.org/2000/svg">
<path d="M29.1754 10.0581C30.9264 10.5036 32.219 10.9085 32.5601 11.1636C33.709 12.0229 21.5309 19.9283 19.9224 20.272C18.3123 20.6151 1.31042 16.3187 1.08065 15.4595C1.01709 15.22 2.1584 14.489 3.87948 13.5396C9.52544 15.1233 17.4249 16.9334 18.5377 16.6958C19.6539 16.4572 25.4606 12.862 29.1754 10.0581Z" fill="#F4EDE8"/>
<path d="M30.7223 17.1938C32.1214 17.5681 33.1283 17.9 33.4235 18.1206C34.5724 18.9799 22.3942 26.8853 20.7858 27.229C19.1772 27.5726 2.17871 23.2777 1.94397 22.4175C1.87618 22.164 3.16022 21.3569 5.05432 20.3247C10.7231 21.946 19.1661 23.8999 20.3199 23.6538C21.4128 23.4202 27.0024 19.9697 30.7223 17.1938Z" fill="#F4EDE8"/>
<path d="M31.0224 3.43714C30.79 2.92157 17.6925 0.171857 14.0186 0C9.11665 2.29143 0.137306 7.38986 0.229216 7.73357C0.45899 8.59286 16.776 12.8893 18.3845 12.5456C19.301 12.3497 31.5646 4.64014 31.0224 3.43714Z" fill="#F4EDE8"/>
</svg>
