<svg width="34" height="25" viewBox="0 0 34 25" fill="none" xmlns="http://www.w3.org/2000/svg">
<path d="M29.2437 8.00342C30.9949 8.44892 32.2875 8.85384 32.6285 9.10889C33.7773 9.96822 21.5993 17.8736 19.9908 18.2173C18.3816 18.5607 1.3788 14.264 1.14902 13.4048C1.08533 13.1654 2.22662 12.4344 3.94785 11.4849C9.59396 13.0686 17.4936 14.8788 18.6061 14.6411C19.7224 14.4024 25.5291 10.8073 29.2437 8.00342Z" fill="#322924"/>
<path d="M30.8473 13.6812C32.2465 14.0555 33.2535 14.3873 33.5485 14.6079C34.6973 15.4672 22.5199 23.372 20.9108 23.7163C19.3026 24.06 2.30449 19.7651 2.06897 18.9048C2.00118 18.6513 3.28535 17.8452 5.17932 16.813C10.8484 18.4343 19.292 20.3875 20.4449 20.1411C21.5378 19.9075 27.1274 16.457 30.8473 13.6812Z" fill="#322924"/>
<path d="M31.0224 3.43714C30.79 2.92157 17.6925 0.171857 14.0186 0C9.11665 2.29143 0.137306 7.38986 0.229216 7.73357C0.45899 8.59286 16.776 12.8893 18.3845 12.5456C19.301 12.3497 31.5646 4.64014 31.0224 3.43714Z" fill="#322924"/>
</svg>
