<svg width="31" height="43" viewBox="0 0 31 43" fill="none" xmlns="http://www.w3.org/2000/svg">
<path d="M7.94904 26.6099C6.87186 26.6776 5.93924 26.4912 5.15118 26.0507C4.36207 25.5933 3.73858 24.9482 3.28072 24.1151C2.83968 23.2811 2.58427 22.3086 2.51448 21.1978C2.46479 20.4067 2.52502 19.6172 2.69518 18.8293C2.86535 18.0413 3.11654 17.3327 3.44875 16.7036C3.86626 16.3563 4.31903 16.0321 4.80704 15.7311C5.29505 15.4301 5.81095 15.1696 6.35474 14.9495C6.89852 14.7295 7.44549 14.56 7.99562 14.4409C8.65203 14.3997 9.32108 14.4252 10.0028 14.5176C10.6834 14.5931 11.2199 14.6608 11.6123 14.7206L11.7844 15.0393L11.6735 18.5187L10.2171 18.7369L10.0577 18.6202L9.34372 16.1304C9.18801 16.0726 9.03336 16.0317 8.87976 16.0075C8.72617 15.9834 8.56469 15.9682 8.39533 15.9619C8.24173 15.9378 8.06448 15.9405 7.86357 15.97C7.56061 15.989 7.26765 16.0328 6.9847 16.1012C6.71752 16.1518 6.49347 16.2166 6.31256 16.2955C6.0697 16.7332 5.8616 17.3208 5.68827 18.0583C5.53071 18.7779 5.48206 19.6173 5.54233 20.5767C5.60789 21.6202 5.84801 22.4838 6.2627 23.1674C6.69422 23.85 7.24298 24.3816 7.90899 24.7622C8.22878 24.7421 8.62955 24.6662 9.1113 24.5346C9.60989 24.4019 10.1237 24.2429 10.6528 24.0576C11.1976 23.8544 11.6836 23.6549 12.1106 23.459L12.6158 24.2384C12.2803 24.5467 11.9033 24.8661 11.4847 25.1966C11.0662 25.527 10.6207 25.8338 10.1485 26.1169C9.96654 26.179 9.67623 26.2649 9.27758 26.3744C8.87998 26.5008 8.43713 26.5793 7.94904 26.6099Z" fill="#F4EDE8"/>
<path d="M13.7466 35.4843C13.8686 35.0794 13.995 34.6149 14.1255 34.091C14.2761 33.5542 14.4238 32.9909 14.5686 32.4011C14.717 31.7948 14.8654 31.1885 15.0138 30.5822C15.1621 29.9759 15.2987 29.3843 15.4235 28.8073C15.5233 28.3458 15.6256 27.8331 15.7303 27.2691C15.8515 26.7087 15.9662 26.1382 16.0745 25.5577C16.1863 24.9608 16.2846 24.3868 16.3693 23.8357C16.474 23.2717 16.568 22.7572 16.6513 22.2921C16.7347 21.827 16.8019 21.4361 16.8532 21.1193C16.9044 20.8026 16.9408 20.5948 16.9621 20.4959L15.1987 19.6745C15.2379 19.4932 15.29 19.3319 15.3551 19.1907C15.4237 19.033 15.497 18.8936 15.575 18.7724L19.5603 19.0132L20.3996 19.9193L18.6859 26.4072L17.8946 29.1088L18.1946 29.2772C18.3305 29.0478 18.5272 28.7367 18.7847 28.3437C19.0422 27.9508 19.3381 27.5403 19.6722 27.1122C20.0099 26.6676 20.3505 26.2496 20.694 25.858C21.0415 25.8469 21.3836 25.8605 21.7204 25.8988C22.0608 25.9206 22.3976 25.959 22.7308 26.0138C23.0805 26.0722 23.4119 26.1352 23.7251 26.2029C23.9545 26.3388 24.2145 26.5331 24.5049 26.7857C24.7954 27.0383 25.0627 27.398 25.3068 27.8649C25.5544 28.3153 25.7123 28.9016 25.7805 29.6237C25.8522 30.3294 25.7739 31.2097 25.5458 32.2646C25.3889 32.9899 25.1504 33.6543 24.83 34.2579C24.5262 34.8651 24.1194 35.3897 23.6097 35.8316C23.3714 36.0561 22.9916 36.3363 22.4704 36.6722C21.9656 37.0116 21.3472 37.3179 20.6153 37.5909C20.3431 37.6528 20.045 37.6746 19.7212 37.6564C19.3937 37.6546 19.0652 37.618 18.7355 37.5467C18.0103 37.3899 17.1939 37.1357 16.2865 36.7841C15.3919 36.4527 14.5453 36.0194 13.7466 35.4843ZM19.5542 36.2744C19.7039 36.2205 19.9431 36.1515 20.2719 36.0673C20.6171 35.9867 20.9684 35.8384 21.3257 35.6223C21.3943 35.4646 21.5251 35.1392 21.718 34.646C21.9145 34.1364 22.0876 33.5354 22.2373 32.8432C22.4155 32.019 22.5254 31.2318 22.5669 30.4816C22.6284 29.7185 22.6255 29.0536 22.5583 28.4869C22.4349 28.3395 22.2997 28.2067 22.1527 28.0886C22.0092 27.9541 21.8457 27.8325 21.6622 27.7238C21.4951 27.6186 21.3163 27.5282 21.1256 27.4524C20.8779 27.6404 20.5487 27.9661 20.1379 28.4293C19.7307 28.8762 19.3028 29.3789 18.8542 29.9375C18.4256 30.4832 18.0654 30.9919 17.7735 31.4637L17.0089 34.9993C17.1136 35.0737 17.3771 35.2515 17.7994 35.5326C18.2253 35.7973 18.8102 36.0445 19.5542 36.2744Z" fill="#F4EDE8"/>
</svg>
