<svg width="102" height="111" viewBox="0 0 102 111" fill="none" xmlns="http://www.w3.org/2000/svg">
<path d="M58.5583 6.59082L53.4616 12.5254L35.5856 13.5488L25.3844 20.7812L25.3415 20.8115L25.2985 20.8389C23.6931 21.8422 20.75 24.3945 18.1071 26.96C16.8051 28.2238 15.6215 29.4465 14.7604 30.4229C14.3277 30.9135 13.9974 31.3182 13.779 31.6201C13.699 31.7306 13.6448 31.815 13.609 31.873C13.4202 33.0295 12.6404 37.9129 12.0641 43.5205C11.4487 49.5097 11.1017 56.0198 11.8122 59.7881C13.5412 63.784 15.7595 69.7632 17.7282 74.8252C18.7371 77.4193 19.681 79.7749 20.4782 81.5566C20.8778 82.45 21.226 83.1676 21.5153 83.6855C21.6599 83.9445 21.776 84.128 21.862 84.248C21.8844 84.2794 21.904 84.3015 21.9167 84.3174C22.1954 84.5036 22.8972 84.8579 24.069 85.3223C25.2631 85.7954 26.7838 86.3236 28.4674 86.8418C31.6355 87.8168 35.2913 88.7294 38.3522 89.1826L38.9567 89.2666L38.9655 89.2676C42.2346 89.7126 46.896 90.3857 51.1784 90.8916C53.3179 91.1443 55.341 91.352 57.028 91.4688C58.762 91.5887 59.997 91.6006 60.6422 91.5127C61.2059 91.4357 62.413 91.0277 64.1588 90.2441C65.8386 89.4902 67.8494 88.4674 69.9362 87.3027C74.0078 85.0302 78.2319 82.2919 80.8336 80.0449C84.4279 73.0623 86.8371 63.7539 85.8581 56.126C84.8116 53.4124 82.9176 49.7968 81.0251 46.6348C80.0617 45.0252 79.1167 43.5625 78.3102 42.4268C77.4523 41.2187 76.8806 40.5698 76.6569 40.3955C76.687 40.4189 76.6067 40.3562 76.3044 40.249C76.0264 40.1506 75.6479 40.0447 75.1637 39.9395C74.1951 39.7289 72.9203 39.5413 71.4215 39.3838C68.4307 39.0694 64.68 38.8883 60.9674 38.8496C57.2529 38.811 53.6237 38.9158 50.8747 39.1621C49.4924 39.286 48.386 39.441 47.6198 39.6162C47.3804 39.671 47.1977 39.7227 47.0651 39.7666C46.9087 40.2129 46.6987 41.001 46.4831 42.1201C46.2113 43.5309 45.9662 45.2691 45.8044 47.0596C45.6423 48.8529 45.5666 50.6633 45.6217 52.2236C45.6777 53.8075 45.8663 54.9354 46.112 55.541C46.1433 55.5675 46.2213 55.6238 46.3844 55.6934C46.7311 55.841 47.2799 55.971 48.0563 56.0439C49.6024 56.1891 51.6497 56.0752 53.8415 55.8174C58.2133 55.3031 62.6959 54.2802 64.1217 54.0029L65.0475 53.8232L67.609 56.3652L67.8561 63.2451L67.2223 63.8027C64.7462 65.9819 60.6489 68.6361 56.652 70.7373C54.6427 71.7936 52.6155 72.7331 50.7868 73.4131C49.0075 74.0746 47.2387 74.5585 45.8122 74.5586C45.2535 74.5585 44.6297 74.3959 44.0954 74.2227C43.5119 74.0334 42.8435 73.7669 42.1354 73.4424C40.7181 72.7927 39.0522 71.8724 37.4401 70.7666C35.8345 69.6652 34.225 68.3409 32.9635 66.8691C31.72 65.4181 30.6831 63.6694 30.5016 61.7334C30.3475 60.0885 30.5723 57.3095 31.0075 54.1738C31.4508 50.98 32.1386 47.2441 32.986 43.5996C33.8317 39.9626 34.8475 36.3692 35.9557 33.4785C36.509 32.0354 37.1016 30.7234 37.7301 29.6543C38.3321 28.6305 39.0774 27.6335 40.0124 27.0459C40.9258 26.4722 42.3161 26.1566 43.7262 25.9463C45.2272 25.7225 47.0735 25.5773 49.1227 25.498C53.2274 25.3394 58.2822 25.4387 63.3053 25.7432C68.3279 26.0476 73.3656 26.5599 77.4323 27.2354C79.4621 27.5725 81.287 27.9562 82.7614 28.3867C84.1481 28.7917 85.5102 29.3144 86.3581 30.0645C87.6488 31.2066 89.1248 33.401 90.5817 35.9629C92.0777 38.5937 93.6723 41.827 95.1686 45.2373C98.1409 52.0119 100.825 59.7078 101.534 64.8994C101.772 66.6445 101.3 69.1187 100.593 71.6738C99.8618 74.3198 98.7873 77.3572 97.5934 80.376C95.2125 86.396 92.2833 92.5189 90.4772 95.5293C89.5776 97.0285 87.8511 98.7314 85.8805 100.367C83.8647 102.04 81.4329 103.774 78.9606 105.323C76.4913 106.871 73.94 108.261 71.6833 109.231C70.5561 109.716 69.4691 110.11 68.4821 110.363C67.5258 110.608 66.5202 110.759 65.6139 110.636C59.1763 109.759 47.6326 107.059 36.3297 103.854C25.056 100.659 13.7717 96.8915 7.93423 93.8311L7.80533 93.7646L7.68912 93.6768C6.09357 92.4749 4.93786 90.3475 4.05142 87.9375C3.13996 85.4594 2.40959 82.3842 1.83169 78.9648C0.674634 72.1184 0.0974675 63.6711 0.0113819 55.3604C-0.0747209 47.0469 0.329654 38.8001 1.15787 32.3467C1.57114 29.1266 2.09675 26.2987 2.73892 24.1143C3.05947 23.0239 3.42285 22.0427 3.84341 21.2354C4.24582 20.463 4.79247 19.6681 5.56412 19.167C8.42617 17.3088 17.3926 12.6521 26.5026 8.43652C31.0774 6.31958 35.736 4.29208 39.734 2.76465C43.6423 1.27156 47.1714 0.154378 49.362 0.0361328L50.0231 0L58.5583 6.59082ZM11.1276 93.3984C11.5611 93.5943 12.0134 93.793 12.4831 93.9932C12.5264 94.0116 12.5703 94.0294 12.6139 94.0479C12.0498 93.8086 11.5103 93.5719 10.9977 93.3389C11.0408 93.3585 11.0841 93.3788 11.1276 93.3984ZM9.88345 92.8184C9.94512 92.8482 10.0083 92.8773 10.071 92.9072C9.88481 92.8183 9.70252 92.7294 9.52505 92.6416C9.64259 92.6998 9.76206 92.7597 9.88345 92.8184ZM99.7672 65.1396C99.7462 64.9854 99.7246 64.8281 99.6999 64.6689C99.6893 64.601 99.677 64.5327 99.6657 64.4639C99.7033 64.694 99.7372 64.9195 99.7672 65.1396ZM99.653 64.3896C99.6417 64.322 99.6316 64.253 99.6198 64.1846C99.5914 64.0207 99.5601 63.8548 99.528 63.6865C99.5733 63.9253 99.6148 64.1601 99.653 64.3896ZM66.0456 62.4658C65.7607 62.7165 65.4495 62.974 65.1188 63.2383C65.2805 63.1092 65.4385 62.9827 65.5895 62.8564C65.7473 62.7245 65.9 62.5939 66.0456 62.4658Z" fill="url(#paint0_linear_1681_10558)"/>
<defs>
<linearGradient id="paint0_linear_1681_10558" x1="50.7981" y1="0" x2="50.7981" y2="110.68" gradientUnits="userSpaceOnUse">
<stop stop-color="#D9D9D9"/>
<stop offset="1" stop-color="#9F9F9F"/>
</linearGradient>
</defs>
</svg>
