<svg width="101" height="111" viewBox="0 0 101 111" fill="none" xmlns="http://www.w3.org/2000/svg">
<path fill-rule="evenodd" clip-rule="evenodd" d="M58.2144 6.55273L53.148 12.4521L35.3765 13.4697L25.2359 20.6592L25.193 20.6895L25.15 20.7168C23.554 21.7143 20.6279 24.2514 18.0006 26.8018C16.7063 28.0581 15.5304 29.2736 14.6744 30.2441C14.2441 30.732 13.9161 31.1344 13.6988 31.4346C13.6191 31.5447 13.5644 31.6287 13.5289 31.6865C13.341 32.8369 12.5666 37.6906 11.9937 43.2646C11.3819 49.2188 11.0364 55.6912 11.7428 59.4375C13.4616 63.4099 15.6665 69.3535 17.6236 74.3857C18.6267 76.9648 19.5655 79.3067 20.358 81.0781C20.7553 81.9662 21.1017 82.6794 21.3892 83.1943C21.5332 83.452 21.6485 83.6346 21.734 83.7539C21.7563 83.7851 21.7751 83.8075 21.7877 83.8232C22.0648 84.0083 22.7626 84.3607 23.9273 84.8223C25.1145 85.2927 26.6266 85.8169 28.3004 86.332C31.4499 87.3013 35.0845 88.2086 38.1275 88.6592L38.7281 88.7432L38.7369 88.7441C41.9869 89.1866 46.6213 89.8555 50.8785 90.3584C53.0051 90.6096 55.0161 90.8166 56.693 90.9326C58.4169 91.0519 59.6453 91.063 60.2867 90.9756C60.8472 90.8989 62.0473 90.4938 63.7828 89.7148C65.4526 88.9654 67.4506 87.9488 69.525 86.791C73.5728 84.5319 77.7723 81.8091 80.359 79.5752C83.9321 72.6336 86.3273 63.38 85.3541 55.7969C84.3138 53.0992 82.4308 49.5048 80.5494 46.3613C79.5917 44.7613 78.6529 43.3068 77.8512 42.1777C76.9983 40.9768 76.43 40.3315 76.2076 40.1582C76.2375 40.1815 76.1575 40.1192 75.857 40.0127C75.5806 39.9148 75.2039 39.8098 74.7223 39.7051C73.7593 39.4957 72.4925 39.309 71.0025 39.1523C68.0292 38.8398 64.3007 38.6595 60.6099 38.6211C56.9171 38.5827 53.3087 38.6868 50.5758 38.9316C49.2018 39.0548 48.1021 39.2096 47.3404 39.3838C47.1026 39.4382 46.9215 39.4896 46.7896 39.5332C46.6342 39.9768 46.4249 40.7604 46.2105 41.873C45.9403 43.2755 45.6966 45.0033 45.5357 46.7832C45.3746 48.5659 45.2993 50.3658 45.3541 51.917C45.4098 53.4917 45.5971 54.6138 45.8414 55.2158C45.8728 55.2423 45.9502 55.2983 46.1119 55.3672C46.4565 55.514 47.0023 55.6433 47.774 55.7158C49.3111 55.8601 51.347 55.7456 53.526 55.4893C57.8721 54.978 62.3284 53.9622 63.7457 53.6865L64.6656 53.5068L67.2125 56.0342L67.4576 62.874L66.8287 63.4287C64.3672 65.5951 60.2934 68.2333 56.3199 70.3223C54.3224 71.3724 52.3069 72.3065 50.4889 72.9824C48.72 73.6401 46.9618 74.121 45.5435 74.1211C44.9881 74.121 44.3677 73.9594 43.8365 73.7871C43.2565 73.599 42.5922 73.3344 41.8883 73.0117C40.4794 72.3659 38.8239 71.4509 37.2213 70.3516C35.6249 69.2565 34.0243 67.9398 32.7701 66.4766C31.5339 65.0341 30.5033 63.2957 30.3228 61.3711C30.1696 59.7358 30.3921 56.9728 30.8248 53.8555C31.2655 50.6804 31.9492 46.9667 32.7916 43.3438C33.6323 39.7281 34.643 36.156 35.7447 33.2822C36.2947 31.8477 36.8836 30.5432 37.5084 29.4805C38.1068 28.4626 38.8484 27.4709 39.7779 26.8867C40.6859 26.3165 42.0677 26.003 43.4693 25.7939C44.9616 25.5714 46.7973 25.4274 48.8346 25.3486C52.9153 25.1909 57.9404 25.2892 62.9342 25.5918C67.9273 25.8944 72.9353 26.4047 76.9781 27.0762C78.996 27.4114 80.8103 27.7917 82.276 28.2197C83.6546 28.6223 85.0082 29.1421 85.8512 29.8877C87.1344 31.0231 88.601 33.2049 90.0494 35.752C91.5367 38.3674 93.1224 41.5822 94.6099 44.9727C97.5648 51.7074 100.234 59.3575 100.938 64.5186C101.175 66.2533 100.706 68.7129 100.004 71.2529C99.2762 73.8833 98.208 76.9032 97.0211 79.9043C94.654 85.8891 91.7414 91.9761 89.9459 94.9688C89.0516 96.4591 87.3364 98.1522 85.3775 99.7783C83.3734 101.442 80.9546 103.165 78.4967 104.705C76.0419 106.243 73.5058 107.625 71.2623 108.59C70.1417 109.072 69.061 109.464 68.0797 109.716C67.1292 109.959 66.1299 110.109 65.2291 109.986C58.8292 109.115 47.3525 106.431 36.1158 103.245C24.9083 100.068 13.6904 96.3227 7.88729 93.2803L7.75936 93.2139L7.64413 93.127C6.05792 91.9321 4.90916 89.8168 4.02792 87.4209C3.12191 84.9575 2.39535 81.9009 1.82089 78.502C0.670607 71.6957 0.0968942 63.2972 0.0113149 55.0352C-0.07427 46.7705 0.327603 38.5718 1.15096 32.1562C1.5618 28.9552 2.08388 26.1442 2.72225 23.9727C3.04093 22.8887 3.40276 21.913 3.82089 21.1104C4.22087 20.3427 4.76394 19.5528 5.53085 19.0547C8.37584 17.2075 17.2904 12.5777 26.3473 8.38672C30.8951 6.28226 35.5261 4.26649 39.5006 2.74805C43.3858 1.26373 46.8941 0.152726 49.0719 0.0351562L49.7291 0L58.2144 6.55273ZM11.0621 92.8506C11.4931 93.0453 11.9428 93.2424 12.4098 93.4414C12.453 93.4598 12.4971 93.4776 12.5406 93.4961C11.9796 93.2582 11.4429 93.0227 10.9332 92.791C10.9761 92.8105 11.0188 92.831 11.0621 92.8506ZM9.82577 92.2734C9.88709 92.3031 9.95 92.3325 10.0123 92.3623C9.82723 92.2738 9.64575 92.1859 9.46932 92.0986C9.58622 92.1566 9.70503 92.215 9.82577 92.2734ZM99.1822 64.7578C99.1613 64.6044 99.1395 64.4484 99.1148 64.29C99.1043 64.2224 99.0919 64.1544 99.0807 64.0859C99.1181 64.3148 99.1523 64.5388 99.1822 64.7578ZM99.068 64.0117C99.0567 63.9446 99.0465 63.8765 99.0348 63.8086C99.0065 63.6456 98.9759 63.4799 98.9439 63.3125C98.989 63.5499 99.03 63.7834 99.068 64.0117ZM65.6578 62.0986C65.3746 62.3479 65.0657 62.6044 64.7369 62.8672C64.8977 62.7388 65.0545 62.6128 65.2047 62.4873C65.3616 62.3561 65.5131 62.226 65.6578 62.0986Z" fill="url(#paint0_linear_1681_10558)"/>
<defs>
<linearGradient id="paint0_linear_1681_10558" x1="50.5" y1="0" x2="50.5" y2="110.03" gradientUnits="userSpaceOnUse">
<stop stop-color="#D9D9D9"/>
<stop offset="1" stop-color="#9F9F9F"/>
</linearGradient>
</defs>
</svg>
