<svg width="13" height="16" viewBox="0 0 13 16" fill="none" xmlns="http://www.w3.org/2000/svg">
<path d="M10.9605 0.268592C11.633 0.482641 12.2348 0.76243 12.7694 1.10257C12.6101 1.09385 12.448 1.08952 12.2831 1.08819C11.6152 1.0828 10.9416 1.12235 10.263 1.2077C9.60614 1.2812 9.11142 1.36106 8.53208 1.69699C7.95287 2.03287 7.34199 2.65161 6.86701 3.34787C6.3974 4.02723 6.0126 4.83769 5.71318 5.77842C5.3267 6.99269 5.19717 8.10994 5.32485 9.13004C5.45803 10.133 5.82674 10.9944 6.43015 11.7139C7.0501 12.4387 7.89429 12.9711 8.96248 13.3111C9.55398 13.4429 10.1703 13.5259 10.8109 13.5602C11.439 13.5815 12.0493 13.5525 12.6428 13.4782C12.3409 13.8219 12.0387 14.0844 11.6167 14.3096C11.0037 14.6367 10.1622 14.8948 9.36539 14.9817C8.5891 15.0752 7.78788 15.1043 6.96222 15.0685C6.16365 15.0186 5.39494 14.9104 4.65628 14.7434C3.32106 14.3184 2.26234 13.663 1.48057 12.7785C0.719606 11.9007 0.248948 10.8548 0.0700059 9.6404C-0.102376 8.40515 0.0451893 7.05565 0.510939 5.59224C0.871781 4.45853 1.33998 3.48325 1.91624 2.66782C2.499 1.83192 3.2521 1.09132 3.96944 0.692619C4.6867 0.294011 5.30191 0.204781 6.11899 0.124443C6.96348 0.0300146 7.80284 -0.010202 8.63507 0.00497227C9.46713 0.0201689 10.2426 0.108157 10.9605 0.268592Z" fill="#F4EDE8"/>
</svg>
