<svg width="43" height="49" viewBox="0 0 43 49" fill="none" xmlns="http://www.w3.org/2000/svg">
<path d="M27.66 0.0016939C29.84 0.156229 31.8576 0.552874 33.7143 1.18762C33.2334 1.27672 32.7468 1.37941 32.2544 1.49434C30.241 1.96433 28.2441 2.57452 26.2643 3.32539C24.3417 4.02458 22.9111 4.62234 21.4127 6.05462C19.9142 7.48699 18.528 9.79531 17.6057 12.2365C16.6873 14.6222 16.1201 17.3393 15.904 20.3875C15.6251 24.3224 16.0492 27.7781 17.1762 30.7544C18.307 33.6751 20.0416 35.9984 22.381 37.7238C24.7737 39.4531 27.7011 40.4398 31.1623 40.6851C33.0378 40.651 34.9521 40.4525 36.9043 40.0896C38.8048 39.6975 40.6179 39.1727 42.3454 38.5192C41.6869 39.7746 40.9615 40.7817 39.8546 41.7673C38.2483 43.1975 35.9053 44.5874 33.5712 45.4289C31.3037 46.275 28.9145 46.9445 26.4044 47.4379C23.9656 47.8691 21.5743 48.1022 19.2305 48.1375C14.9043 47.8308 11.2432 46.6321 8.24742 44.5404C5.31817 42.4532 3.1414 39.6474 1.7188 36.1232C0.300946 32.5321 -0.239495 28.3648 0.0966425 23.6227C0.357048 19.9493 1.05741 16.676 2.19755 13.8033C3.34246 10.8639 5.06834 8.08657 6.93652 6.36486C8.80477 4.64309 10.5911 3.9272 12.9918 3.09047C15.4637 2.1917 17.9571 1.46207 20.4719 0.90196C22.9867 0.341858 25.3827 0.0416522 27.66 0.0016939Z" fill="#E0E0E0"/>
</svg>
