<svg width="16" height="18" viewBox="0 0 16 18" fill="none" xmlns="http://www.w3.org/2000/svg">
<path opacity="0.8" d="M8.11328 0.599609C8.93659 0.596403 9.76318 0.773176 10.3779 1.0791C11.0718 1.4244 11.7109 2.25439 12.1494 3.15332C12.599 4.07505 12.9072 5.20862 12.8271 6.2793C12.7419 7.41841 12.064 8.3687 11.4824 8.99414C11.301 9.18927 11.1205 9.35916 10.959 9.50293C11.1706 9.65426 11.4186 9.83067 11.6738 10.0205C12.0332 10.2877 12.4144 10.5813 12.7432 10.8545C13.0587 11.1167 13.369 11.3956 13.5488 11.6279C13.8903 12.0692 14.1893 12.7951 14.4062 13.5752C14.6281 14.3729 14.7837 15.3008 14.7998 16.1885C14.8027 16.3494 14.7407 16.5043 14.6279 16.6191C14.5151 16.734 14.3612 16.7988 14.2002 16.7988H1.23926C1.04202 16.7988 0.857117 16.7024 0.745117 16.54C0.647529 16.3985 0.61908 16.2488 0.608398 16.1582C0.596635 16.0581 0.599465 15.9582 0.606445 15.8691C0.620479 15.6903 0.659368 15.4868 0.708984 15.2812C0.809221 14.8661 0.971961 14.365 1.15137 13.8779C1.33151 13.3888 1.53365 12.898 1.71875 12.501C1.81105 12.303 1.90215 12.1216 1.98633 11.9727C2.05973 11.8428 2.16018 11.6783 2.27734 11.5645C2.41791 11.4279 2.73859 11.1951 3.07715 10.958C3.43742 10.7057 3.8788 10.407 4.30469 10.1221C4.66618 9.88024 5.01869 9.64724 5.30469 9.45898C5.12743 9.28912 4.92448 9.08707 4.72266 8.8584C4.42641 8.52272 4.11658 8.12194 3.87891 7.68848C3.64386 7.25981 3.45703 6.75873 3.45703 6.23438C3.45705 5.37002 3.68327 4.37709 4.05762 3.49512C4.42784 2.62297 4.9777 1.77815 5.68555 1.2832C6.39625 0.786384 7.29146 0.602824 8.11328 0.599609Z" stroke="#F4EDE8" stroke-width="1.2" stroke-linejoin="round"/>
</svg>
