<svg width="34" height="21" viewBox="0 0 34 21" fill="none" xmlns="http://www.w3.org/2000/svg">
<path d="M16.5088 0.0206971C19.8265 -0.108465 21.9836 0.288067 26.9024 3.49238C31.6451 6.58203 32.4625 8.84754 33.0313 9.55878C33.0664 9.56406 33.0892 9.56999 33.0996 9.57636C33.1291 9.59484 33.1327 9.6326 33.1143 9.68769C33.1425 9.7519 33.1282 9.78648 33.0655 9.7912C32.4817 10.803 28.109 15.4025 25.4258 17.4211C23.3535 18.9801 21.0308 20.5385 17.0752 20.673C12.7498 20.8201 11.05 19.885 6.95902 16.7219C2.95795 13.6283 0.738805 11.6629 0.109406 10.9328C0.0754985 10.9274 0.0530707 10.9211 0.0430002 10.9143C0.00857911 10.8908 -0.00205135 10.8459 0.00686737 10.7814C-0.00533738 10.7475 -0.00156893 10.7232 0.0205392 10.7102C0.28807 9.79675 3.36599 6.28794 6.03909 4.11249C8.10592 2.43045 10.6048 0.250616 16.5088 0.0206971ZM16.4278 2.80683C12.7199 2.95472 11.1571 4.57246 9.86429 5.81953C8.19227 7.43256 6.27122 10.0387 6.10648 10.7189C6.09256 10.7286 6.08992 10.7463 6.09769 10.7717C6.09229 10.8198 6.09941 10.8536 6.12113 10.8713C6.12757 10.8763 6.14127 10.8809 6.16214 10.885C6.5596 11.4322 7.32122 12.8731 9.84476 15.1984C12.4246 17.5756 14.1342 18.3152 16.8506 18.2228C19.3346 18.1384 21.4339 16.711 22.7305 15.5559C22.7305 15.5559 26.9591 10.7358 26.96 10.3107C26.9606 9.88522 25.9564 7.7643 22.9678 5.43964C19.8678 3.02831 18.5113 2.72378 16.4278 2.80683Z" fill="#C06014"/>
<path d="M22.0382 9.76578C21.458 7.60359 19.1372 5.44141 16.8164 5.44141C12.1748 5.98195 12.1748 9.11712 12.1748 10.8469C12.1748 13.0091 15.0758 15.7118 17.3966 15.1712C19.7174 14.6307 22.6184 11.928 22.0382 9.76578Z" fill="#C06014"/>
</svg>
