<svg width="33" height="33" viewBox="0 0 33 33" fill="none" xmlns="http://www.w3.org/2000/svg">
<path d="M16.1543 1.5C19.6253 1.49998 23.0776 1.62452 25.7686 1.86914C27.1181 1.99183 28.2425 2.14144 29.0693 2.3125C29.4843 2.39835 29.7898 2.48326 29.9971 2.55859C30.0249 2.56871 30.0484 2.58045 30.0693 2.58887C30.0791 2.61257 30.0933 2.63922 30.1055 2.67188C30.1847 2.88529 30.2741 3.19868 30.3662 3.62109C30.5496 4.46255 30.7165 5.60586 30.8584 6.97461C31.1414 9.70445 31.3119 13.203 31.3428 16.7012C31.3736 20.2018 31.2642 23.6587 30.998 26.3115C30.8643 27.6442 30.696 28.7262 30.501 29.4932C30.411 29.847 30.3239 30.0915 30.2539 30.2471C30.2065 30.2608 30.1469 30.2809 30.0713 30.2988C29.8068 30.3614 29.4477 30.424 28.9922 30.4844C28.083 30.6048 26.8834 30.7021 25.4756 30.7754C22.6652 30.9217 19.1195 30.9686 15.6055 30.9375C12.0926 30.9064 8.6357 30.7978 6.00488 30.6357C4.68582 30.5545 3.59694 30.4615 2.82031 30.3613C2.63999 30.3381 2.48354 30.3139 2.34961 30.292C2.32464 30.1513 2.29768 29.986 2.27051 29.7949C2.15814 29.0047 2.0478 27.8974 1.94727 26.5596C1.7467 23.8906 1.5914 20.3885 1.5293 16.8486C1.46713 13.3054 1.49942 9.75469 1.66797 6.98145C1.75252 5.59032 1.86937 4.43079 2.01758 3.5791C2.09196 3.15174 2.16757 2.83889 2.2373 2.62891C2.24294 2.61194 2.2498 2.59634 2.25488 2.58203C2.27202 2.57531 2.29038 2.56629 2.31152 2.55859C2.51869 2.48327 2.82517 2.39837 3.24023 2.3125C4.06689 2.1415 5.19078 1.99182 6.54004 1.86914C9.23086 1.6245 12.6832 1.50003 16.1543 1.5Z" fill="#FF6C2F" stroke="black" stroke-width="3"/>
</svg>
