<svg width="15" height="19" viewBox="0 0 15 19" fill="none" xmlns="http://www.w3.org/2000/svg">
<g opacity="0.8">
<mask id="path-1-outside-1_1268_60680" maskUnits="userSpaceOnUse" x="-0.799805" y="-0.800781" width="16" height="20" fill="black">
<rect fill="white" x="-0.799805" y="-0.800781" width="16" height="20"/>
<path d="M7.2002 1.19922C10.8764 1.19922 13.2001 4.15968 13.2002 7.79297C13.2002 11.4263 8.06919 17.5612 7.2002 17.5625C6.33121 17.5638 1.20026 11.3725 1.2002 7.79297C1.20019 4.21349 3.52396 1.19924 7.2002 1.19922ZM9.0332 4.34766C7.78196 3.36619 4.6401 4.23061 4.09375 5.93848C3.65673 7.30486 4.15278 9.37343 5.27246 10.082C6.3923 10.7905 9.40772 10.4197 10.2666 8.49023C11.0633 6.70028 10.5249 5.51832 9.0332 4.34766Z"/>
</mask>
<path d="M7.2002 1.19922V-0.000781298H7.20019L7.2002 1.19922ZM13.2002 7.79297H14.4002V7.79295L13.2002 7.79297ZM7.2002 17.5625L7.20194 18.7625H7.20194L7.2002 17.5625ZM1.2002 7.79297L0.000195265 7.79297V7.79299L1.2002 7.79297ZM9.0332 4.34766L9.77404 3.40364L9.77382 3.40347L9.0332 4.34766ZM4.09375 5.93848L2.95081 5.57285L2.95079 5.57291L4.09375 5.93848ZM5.27246 10.082L4.63074 11.096L4.6309 11.0961L5.27246 10.082ZM10.2666 8.49023L11.3629 8.97825L11.3629 8.9782L10.2666 8.49023ZM7.2002 1.19922V2.39922C10.0636 2.39922 12.0001 4.6617 12.0002 7.79299L13.2002 7.79297L14.4002 7.79295C14.4001 3.65766 11.6892 -0.000782132 7.2002 -0.000781298V1.19922ZM13.2002 7.79297H12.0002C12.0002 8.45097 11.7584 9.33228 11.2928 10.3548C10.8366 11.3566 10.2092 12.3997 9.54293 13.3517C8.87688 14.3034 8.19187 15.1357 7.63618 15.7179C7.35585 16.0117 7.12845 16.2207 6.96772 16.3465C6.92933 16.3766 6.89872 16.3988 6.87565 16.4144C6.85197 16.4305 6.84121 16.4363 6.84234 16.4357C6.84331 16.4351 6.84937 16.4319 6.86019 16.4271C6.87082 16.4223 6.88888 16.4148 6.91367 16.4065C6.95613 16.3923 7.0573 16.3627 7.19845 16.3625L7.2002 17.5625L7.20194 18.7625C7.5591 18.762 7.84465 18.6217 7.97923 18.5493C8.14651 18.4593 8.30552 18.3472 8.44729 18.2362C8.73348 18.0121 9.04951 17.7132 9.37242 17.3749C10.0232 16.693 10.7839 15.7642 11.5092 14.7278C12.2343 13.6918 12.944 12.5198 13.477 11.3494C14.0006 10.1997 14.4002 8.95166 14.4002 7.79297H13.2002ZM7.2002 17.5625L7.19845 16.3625C7.34163 16.3623 7.44439 16.3924 7.48762 16.4069C7.51284 16.4153 7.53125 16.423 7.54212 16.4279C7.55319 16.4329 7.55945 16.4362 7.56056 16.4368C7.56195 16.4376 7.55137 16.4319 7.52776 16.4158C7.50476 16.4001 7.47418 16.3778 7.4358 16.3475C7.275 16.2207 7.04748 16.0102 6.76688 15.7142C6.21074 15.1277 5.52523 14.2899 4.85863 13.3341C4.19177 12.3779 3.56384 11.3321 3.10721 10.3315C2.64056 9.30902 2.40021 8.43544 2.4002 7.79295L1.2002 7.79297L0.000195265 7.79299C0.000217557 8.94027 0.401261 10.1829 0.923838 11.328C1.45643 12.495 2.16556 13.6681 2.89007 14.707C3.61484 15.7462 4.375 16.6797 5.02532 17.3656C5.34795 17.7059 5.66386 18.0067 5.94999 18.2323C6.09169 18.344 6.25092 18.457 6.41866 18.5478C6.55317 18.6205 6.84114 18.763 7.20194 18.7625L7.2002 17.5625ZM1.2002 7.79297L2.4002 7.79297C2.40019 4.70882 4.34255 2.39924 7.2002 2.39922L7.2002 1.19922L7.20019 -0.000781298C2.70536 -0.000751138 0.0001899 3.71816 0.000195265 7.79297L1.2002 7.79297ZM9.0332 4.34766L9.77382 3.40347C9.20851 2.96004 8.51522 2.78417 7.88611 2.74439C7.24501 2.70385 6.57365 2.79701 5.95031 2.98639C4.78131 3.34155 3.39996 4.16882 2.95081 5.57285L4.09375 5.93848L5.23669 6.3041C5.33389 6.00026 5.79664 5.54139 6.64798 5.28274C7.0348 5.16522 7.41765 5.11956 7.73464 5.1396C8.06362 5.16041 8.23228 5.24454 8.29259 5.29184L9.0332 4.34766ZM4.09375 5.93848L2.95079 5.57291C2.64774 6.52041 2.68476 7.6199 2.94071 8.56929C3.19128 9.4987 3.71773 10.5182 4.63074 11.096L5.27246 10.082L5.91418 9.06803C5.70751 8.93724 5.4261 8.56818 5.25797 7.94456C5.09524 7.34092 5.10274 6.72293 5.23671 6.30404L4.09375 5.93848ZM5.27246 10.082L4.6309 11.0961C5.13427 11.4146 5.74567 11.5566 6.31288 11.6C6.89823 11.6448 7.53426 11.5925 8.15299 11.4409C9.35521 11.1463 10.7264 10.4081 11.3629 8.97825L10.2666 8.49023L9.17031 8.00222C8.94791 8.50184 8.38196 8.91375 7.5818 9.10982C7.19933 9.20354 6.81785 9.23165 6.49602 9.20702C6.15604 9.181 5.97058 9.10371 5.91402 9.06793L5.27246 10.082ZM10.2666 8.49023L11.3629 8.9782C11.8448 7.89548 11.9887 6.83555 11.6467 5.80783C11.3177 4.81912 10.5999 4.05176 9.77404 3.40364L9.0332 4.34766L8.29237 5.29167C8.95822 5.81421 9.2555 6.22317 9.36945 6.56559C9.47041 6.869 9.48508 7.29504 9.17029 8.00227L10.2666 8.49023Z" fill="#F4EDE8" mask="url(#path-1-outside-1_1268_60680)"/>
</g>
</svg>
