<svg width="81" height="68" viewBox="0 0 81 68" fill="none" xmlns="http://www.w3.org/2000/svg">
<g filter="url(#filter0_ii_2089_12310)">
<path d="M35.4822 64.8454L37.1775 66.8557C39.6434 66.7526 39.3805 66.5464 42.2574 66.2371L76.5089 6.71294L77.6378 0.505332L56.6447 0.5L39.1504 0.731128H25.155L2.99576 0.5L0.663086 2.01214L35.4822 64.8454Z" fill="url(#paint0_linear_2089_12310)"/>
</g>
<path d="M2.99805 0.25L25.1572 0.481445H39.1475L56.6416 0.25H56.6445L77.6377 0.254883L77.9375 0.255859L77.8838 0.549805L76.7549 6.75781L76.7471 6.7998L76.7256 6.83789L42.4736 66.3613L42.4102 66.4717L42.2842 66.4854C40.8546 66.639 40.2083 66.7669 39.6055 66.8701C38.9926 66.975 38.4308 67.0535 37.1875 67.1055L37.0654 67.1104L36.9863 67.0166L35.291 65.0068L35.2754 64.9883L35.2637 64.9668L0.444336 2.13379L0.331055 1.92969L0.527344 1.80273L2.85938 0.290039L2.92285 0.249023L2.99805 0.25Z" stroke="#E786C0" stroke-opacity="0.9" stroke-width="0.5"/>
<defs>
<filter id="filter0_ii_2089_12310" x="-1" y="-2" width="79.2373" height="71.3672" filterUnits="userSpaceOnUse" color-interpolation-filters="sRGB">
<feFlood flood-opacity="0" result="BackgroundImageFix"/>
<feBlend mode="normal" in="SourceGraphic" in2="BackgroundImageFix" result="shape"/>
<feColorMatrix in="SourceAlpha" type="matrix" values="0 0 0 0 0 0 0 0 0 0 0 0 0 0 0 0 0 0 127 0" result="hardAlpha"/>
<feOffset dy="2"/>
<feGaussianBlur stdDeviation="2"/>
<feComposite in2="hardAlpha" operator="arithmetic" k2="-1" k3="1"/>
<feColorMatrix type="matrix" values="0 0 0 0 1 0 0 0 0 1 0 0 0 0 1 0 0 0 0.25 0"/>
<feBlend mode="normal" in2="shape" result="effect1_innerShadow_2089_12310"/>
<feColorMatrix in="SourceAlpha" type="matrix" values="0 0 0 0 0 0 0 0 0 0 0 0 0 0 0 0 0 0 127 0" result="hardAlpha"/>
<feOffset dx="-1" dy="-2"/>
<feGaussianBlur stdDeviation="2"/>
<feComposite in2="hardAlpha" operator="arithmetic" k2="-1" k3="1"/>
<feColorMatrix type="matrix" values="0 0 0 0 0 0 0 0 0 0 0 0 0 0 0 0 0 0 0.15 0"/>
<feBlend mode="darken" in2="effect1_innerShadow_2089_12310" result="effect2_innerShadow_2089_12310"/>
</filter>
<linearGradient id="paint0_linear_2089_12310" x1="39.1504" y1="0.5" x2="39.1504" y2="66.8557" gradientUnits="userSpaceOnUse">
<stop stop-color="#FF84CE"/>
<stop offset="1" stop-color="#FF61BF"/>
</linearGradient>
</defs>
</svg>
