<svg width="38" height="32" viewBox="0 0 38 32" fill="none" xmlns="http://www.w3.org/2000/svg">
<path d="M18.5255 30.1834C18.1489 30.1495 17.8523 30.0033 17.6789 29.903C17.4591 29.7757 17.2639 29.6194 17.1023 29.4742C16.7775 29.1824 16.4407 28.8027 16.1134 28.3983C15.4514 27.5806 14.6865 26.4855 13.9197 25.3352C13.1481 24.1778 12.3507 22.9272 11.6248 21.7871C10.8927 20.6374 10.2408 19.6121 9.74215 18.8734C8.2362 16.6423 6.11648 13.1356 4.42814 10.1134C3.58424 8.60282 2.83386 7.18803 2.31726 6.09889C2.06177 5.56023 1.8454 5.06372 1.7051 4.65949C1.63704 4.46338 1.56741 4.23421 1.5301 4.00576C1.51159 3.89242 1.492 3.72874 1.50318 3.54198C1.5131 3.37677 1.55514 3.03213 1.79335 2.69044C2.01079 2.37853 2.28592 2.23215 2.37665 2.18558C2.50092 2.1218 2.61462 2.08255 2.68874 2.05956C2.83979 2.0127 2.99579 1.98136 3.12396 1.95949C3.38997 1.91411 3.7269 1.87731 4.1021 1.84494C4.86255 1.77935 5.91007 1.72344 7.15039 1.67671C9.63758 1.583 12.9746 1.52352 16.5083 1.50529C23.5464 1.46899 31.4941 1.59475 35.0802 1.95101C35.4566 1.98853 35.86 2.16833 36.1495 2.53344C36.4026 2.85282 36.4667 3.18629 36.4852 3.36925C36.5197 3.7109 36.441 4.00695 36.4057 4.13221C36.3181 4.44281 36.1602 4.80122 35.995 5.14626C35.6493 5.86824 35.0966 6.8802 34.409 8.09681C33.0638 10.4766 30.9711 14.0397 28.7684 17.9201C26.8213 21.3504 24.8801 24.2889 23.2591 26.3885C22.4522 27.4337 21.6993 28.3039 21.0448 28.928C20.7198 29.2379 20.3852 29.5192 20.0533 29.733C19.768 29.9169 19.2798 30.1887 18.6915 30.1906L18.5255 30.1834Z" fill="#FF61BF" stroke="black" stroke-width="3"/>
</svg>
