<svg width="38" height="72" viewBox="0 0 38 72" fill="none" xmlns="http://www.w3.org/2000/svg">
<path d="M18.5255 70.2381C18.1489 70.2042 17.8523 70.058 17.6789 69.9576C17.4591 69.8304 17.2639 69.6741 17.1023 69.5289C16.7775 69.2371 16.4407 68.8574 16.1134 68.453C15.4514 67.6353 14.6865 66.5402 13.9197 65.3899C13.1481 64.2325 12.3507 62.9818 11.6248 61.8418C10.8927 60.6921 10.2408 59.6668 9.74215 58.928C8.2362 56.697 6.11648 53.1903 4.42814 50.1681C3.58424 48.6575 2.83386 47.2427 2.31726 46.1536C2.06177 45.6149 1.8454 45.1184 1.7051 44.7142C1.63704 44.5181 1.56741 44.2889 1.5301 44.0605C1.51159 43.9471 1.492 43.7834 1.50318 43.5967C1.5131 43.4315 1.55514 43.0868 1.79335 42.7451C2.01079 42.4332 2.28592 42.2868 2.37665 42.2403C2.50092 42.1765 2.61462 42.1372 2.68874 42.1142C2.83979 42.0674 2.99579 42.036 3.12396 42.0142C3.38997 41.9688 3.7269 41.932 4.1021 41.8996C4.86255 41.834 5.91007 41.7781 7.15039 41.7314C9.63758 41.6377 12.9746 41.5782 16.5083 41.56C23.5464 41.5237 31.4941 41.6494 35.0802 42.0057C35.4566 42.0432 35.86 42.223 36.1495 42.5881C36.4026 42.9075 36.4667 43.241 36.4852 43.4239C36.5197 43.7656 36.441 44.0616 36.4057 44.1869C36.3181 44.4975 36.1602 44.8559 35.995 45.201C35.6493 45.9229 35.0966 46.9349 34.409 48.1515C33.0638 50.5313 30.9711 54.0944 28.7684 57.9748C26.8213 61.4051 24.8801 64.3436 23.2591 66.4432C22.4522 67.4884 21.6993 68.3586 21.0448 68.9827C20.7198 69.2926 20.3852 69.5739 20.0533 69.7877C19.768 69.9716 19.2798 70.2434 18.6915 70.2453L18.5255 70.2381Z" fill="#FF61BF" stroke="black" stroke-width="3"/>
<path d="M16.9071 36C16.7617 35.9286 16.4708 35.7857 16.0344 35.5714C15.598 35.3571 15.3071 35.1786 15.1617 35.0357C15.1253 34.5 15.089 33.8214 15.0526 33C15.0526 32.1786 15.0344 31.3214 14.998 30.4286C14.998 29.5357 14.998 28.6964 14.998 27.9107C15.1799 27.7321 15.3799 27.5714 15.598 27.4286C15.8162 27.2857 16.0162 27.1429 16.198 27C17.5071 27 18.8162 27.0179 20.1253 27.0536C21.4708 27.0893 22.5799 27.1429 23.4526 27.2143C23.5617 27.6071 23.6708 28.5714 23.7799 30.1071C23.9253 31.6071 23.998 33.25 23.998 35.0357C23.6708 35.1786 23.1617 35.3036 22.4708 35.4107C21.8162 35.5179 21.1071 35.6071 20.3435 35.6786C19.5799 35.7857 18.8708 35.8571 18.2162 35.8929C17.598 35.9643 17.1617 36 16.9071 36Z" fill="#FF61BF" stroke="black" stroke-width="3"/>
<path d="M24.7139 1.5L25.0479 1.68164C25.2717 1.80308 25.5725 1.98571 25.9316 2.21289C26.3352 2.44716 26.7153 2.69514 27.0039 2.95605L27.6016 3.49609L27.4814 4.29199C27.1555 6.45319 26.7575 8.72555 26.2881 11.1084C25.8178 13.4958 25.293 15.8516 24.7139 18.1748C24.1334 20.5034 23.5145 22.6753 22.8574 24.6885L22.6309 25.3848L21.9424 25.6338C21.5499 25.7757 21.0738 25.9302 20.5215 26.0967L20.4932 26.1045L20.4639 26.1123C19.9332 26.2494 19.402 26.3696 18.8701 26.4727L18.1875 26.6045L17.6455 26.1689L16.6787 25.3926L16.2822 25.0742L16.1611 24.5811L11.541 5.78613L11.3271 4.91602L11.9922 4.31543L13.2812 3.15039L13.5586 2.89941L13.9219 2.80762C14.6388 2.62759 15.5027 2.47356 16.5 2.33984C17.4756 2.17716 18.4847 2.03041 19.5273 1.90039C20.5829 1.76877 21.5372 1.6685 22.3887 1.60156H22.3936C23.2532 1.5368 23.9126 1.5 24.333 1.5H24.7139Z" fill="#FF61BF" stroke="black" stroke-width="3"/>
</svg>
