<svg width="86" height="109" viewBox="0 0 86 109" fill="none" xmlns="http://www.w3.org/2000/svg">
<path d="M0.162692 101.094C0.162692 103.623 0.162692 105.627 0.604225 108.68C0.604225 108.68 33.2324 84.2575 40.4831 78.7625C47.1296 83.0364 54.2167 86.9425 62.2352 92.1948C70.2537 97.4472 85.6373 108.35 85.6373 108.35L85.8 106.701L82.3835 30.1797L81.8954 1.31933L81.57 0C77.1231 0.219886 66.4865 0.439775 61.8227 0.659667C57.1589 0.76961 52.3866 0.879553 47.5058 0.989496C42.6251 1.09944 37.5817 1.20939 32.3756 1.31933H16.7572H0.976148C0.650765 2.52872 0.379613 3.73811 0.162692 4.94749C0.0542305 6.15688 0 7.36627 0 8.57566L0.162692 101.094Z" fill="url(#paint0_linear_1817_41319)"/>
<defs>
<linearGradient id="paint0_linear_1817_41319" x1="42.9" y1="0" x2="42.9" y2="108.68" gradientUnits="userSpaceOnUse">
<stop stop-color="#D9D9D9"/>
<stop offset="1" stop-color="#9F9F9F"/>
</linearGradient>
</defs>
</svg>
