<svg width="20" height="22" viewBox="0 0 20 22" fill="none" xmlns="http://www.w3.org/2000/svg">
<path d="M6.02582 2.24417C7.50717 1.86354 9.2834 2.34237 10.5643 2.97428C12.1607 3.76186 13.2445 5.34011 13.7269 7.21705C14.1665 8.92751 13.6921 10.5894 12.7652 11.9058C14.9908 13.5203 18.4916 16.0829 18.951 16.5149C19.5915 17.1176 16.4834 19.1943 15.9045 18.8316C15.4985 18.5771 13.0767 15.4133 11.4832 13.285C10.7757 13.8656 9.97676 14.2902 9.17495 14.4963C6.4539 15.1957 2.44411 13.3021 1.57456 9.91905C1.20145 6.85512 3.1612 3.19111 6.02582 2.24417ZM6.40401 4.92384C4.69317 5.48526 3.50863 7.61471 3.71649 9.38666C4.21885 11.3412 6.59884 12.4189 8.22313 12.0014C9.84723 11.5838 11.4703 9.72103 10.9683 7.76677C10.6896 6.68258 10.0517 5.77332 9.10445 5.32477C8.34431 4.96491 7.28824 4.69668 6.40401 4.92384Z" fill="#6C757E"/>
</svg>
