<svg width="58" height="59" viewBox="0 0 58 59" fill="none" xmlns="http://www.w3.org/2000/svg">
<path d="M21.4709 39.1847C19.6264 38.1782 18.2617 36.9 17.3767 35.3502C16.52 33.8159 16.1455 32.1065 16.2532 30.2221C16.3769 28.3083 17.0075 26.3092 18.145 24.2247C19.0262 22.61 20.0178 21.2651 21.12 20.1901C22.2383 19.0858 23.5789 18.1714 24.7621 17.7647C25.9454 17.3579 26.8825 17.3909 28.116 17.4925C29.3939 17.5802 30.6459 17.7491 31.872 17.9991C33.0981 18.249 34.2176 18.5932 35.2304 19.0316C36.9613 19.9762 38.2712 21.1863 39.1599 22.6619C40.077 24.153 40.5199 25.8045 40.4886 27.6163C40.4858 29.4436 40.2492 31.6448 39.1598 33.6412C38.6471 34.5807 37.7486 36.0264 36.9732 36.9749C36.2422 37.9095 35.4624 38.6025 34.5488 39.3994C33.3365 40.2201 33.1312 40.2846 32.1243 40.6116C31.1174 40.9386 29.5666 40.9164 28.3615 40.8303C27.1848 40.7597 25.9913 40.5847 24.7812 40.3054C23.6155 40.0121 22.5121 39.6386 21.4709 39.1847Z" fill="#CCCCCC"/>
<path d="M0.231181 27.1183L7.2401 30.7328L11.4369 31.0061L11.1778 27.7054L12.8285 24.199L3.46128 22.9106C2.8885 23.6013 1.76588 24.2684 1.30576 24.9135C0.924775 25.5921 0.566581 26.327 0.231181 27.1183Z" fill="#CCCCCC"/>
<path d="M57.0325 31.5184L50.0235 27.9039L45.8268 27.6306L46.0858 30.9313L44.4352 34.4378L53.8024 35.7261C54.3751 35.0354 55.4978 34.3683 55.9579 33.7232C56.3389 33.0446 56.6971 32.3097 57.0325 31.5184Z" fill="#CCCCCC"/>
<path d="M28.6202 1.61859L28.0043 4.91672L27.5419 12.162L30.8628 11.8185L34.5869 12.8914L34.3713 3.43844C33.6793 2.6824 32.0246 0.75893 31.8498 0.694863C31.6751 0.630818 29.5335 1.40149 28.6202 1.61859Z" fill="#CCCCCC"/>
<path d="M28.6437 57.0142L29.2596 53.7161L29.722 46.4708L26.4011 46.8143L22.6771 45.7415L22.8926 55.1944C23.5847 55.9504 25.2393 57.8739 25.4141 57.9379C25.5888 58.002 27.7304 57.2313 28.6437 57.0142Z" fill="#CCCCCC"/>
<path d="M10.0009 7.86715L13.3197 14.9622L16.0641 17.2603L18.2797 14.6996L20.6083 13.3219L14.6394 6.37596C13.7761 6.62037 12.4731 6.53376 11.7284 6.80447C11.0299 7.14765 10.7257 7.4053 10.0009 7.86715Z" fill="#CCCCCC"/>
<path d="M50.4775 10.2031L47.1587 17.2981L44.4142 19.5962L42.1986 17.0356L39.87 15.6579L45.8389 8.71189C46.7023 8.95631 48.0053 8.8697 48.7499 9.1404C49.4484 9.48359 49.7527 9.74124 50.4775 10.2031Z" fill="#CCCCCC"/>
<path d="M47.2628 50.7657L43.944 43.6706L41.1995 41.3725L38.984 43.9332L36.6553 45.3109L42.6242 52.2569C43.4876 52.0124 44.7906 52.0991 45.5353 51.8283C46.2337 51.4852 46.538 51.2275 47.2628 50.7657Z" fill="#CCCCCC"/>
<path d="M5.71292 48.4493L9.0317 41.3542L11.7762 39.0561L13.9917 41.6168L16.3204 42.9945L10.3514 49.9405C9.48809 49.696 8.1851 49.7826 7.44043 49.5119C6.74194 49.1688 6.4377 48.9111 5.71292 48.4493Z" fill="#CCCCCC"/>
</svg>
