<svg width="18" height="18" viewBox="0 0 18 18" fill="none" xmlns="http://www.w3.org/2000/svg">
<path opacity="0.8" fill-rule="evenodd" clip-rule="evenodd" d="M6.20464 0.289699C11.152 -0.987232 16.5539 2.06933 17.3423 7.24966C17.6924 9.55065 17.422 11.6199 16.4195 13.3004C15.4132 14.9872 13.7193 16.1989 11.3931 16.8776C6.23374 18.3828 0.787758 14.5349 0.0933161 9.39419C-0.250827 6.84628 0.382183 4.78207 1.57574 3.24087C2.7595 1.71253 4.46193 0.73965 6.20464 0.289699ZM12.7134 10.4967C11.5754 10.8422 10.3565 11.058 9.1148 11.0534C9.07924 13.0052 9.08509 14.7544 9.15972 15.8932C9.16396 15.8932 9.16818 15.8933 9.17242 15.8932C9.30346 15.7832 9.48724 15.6237 9.70269 15.4186C10.1544 14.9886 10.7415 14.3661 11.2867 13.5973C11.9149 12.7113 12.4659 11.6588 12.7134 10.4967ZM4.45269 10.0963C4.61273 11.4458 5.18871 12.6286 5.85601 13.5876C6.37811 14.3377 6.9455 14.936 7.38336 15.3463C7.56153 15.5133 7.71861 15.6473 7.83941 15.7477C7.77515 14.557 7.77345 12.8462 7.80816 10.9655C6.68023 10.8165 5.52794 10.5053 4.45269 10.0963ZM16.1783 8.93716C15.56 9.31822 14.8659 9.68004 14.1177 9.9938C13.9332 11.7081 13.1684 13.2046 12.3541 14.3532C12.0552 14.7746 11.7456 15.1543 11.4498 15.4879C13.298 14.8671 14.5495 13.8801 15.2955 12.6295C15.9012 11.6141 16.2015 10.378 16.1783 8.93716ZM1.3189 8.46646C1.3314 8.71027 1.35445 8.96089 1.38921 9.21841C1.69966 11.5166 3.13324 13.5063 5.05035 14.7028C4.96052 14.5839 4.87018 14.4616 4.78179 14.3346C3.92172 13.0986 3.13993 11.4469 3.10015 9.5104C2.44179 9.1881 1.83784 8.83459 1.3189 8.46646ZM9.43511 2.2936C9.3284 4.39397 9.21169 7.16172 9.14605 9.74478C10.4212 9.7457 11.6851 9.48326 12.8482 9.07681C12.8378 8.63631 12.7805 8.18464 12.6597 7.72427C12.0234 5.29987 10.9915 3.80991 10.1461 2.93423C9.88839 2.66735 9.64513 2.4579 9.43511 2.2936ZM8.1314 2.1647C7.96752 2.29185 7.79364 2.43431 7.61578 2.59634C6.57275 3.54659 5.33814 5.12887 4.64312 7.64126C4.54492 7.99643 4.48246 8.34454 4.44586 8.68423C5.50542 9.12871 6.68176 9.47957 7.83941 9.64712C7.90642 7.02897 8.02508 4.24794 8.1314 2.1647ZM10.6412 1.59829C10.7842 1.72647 10.9347 1.86777 11.0875 2.02603C12.0862 3.06064 13.2304 4.74839 13.9244 7.39224C14.0282 7.7877 14.094 8.17659 14.1294 8.55728C14.8392 8.22482 15.4876 7.84545 16.0503 7.45474C16.05 7.45214 16.0498 7.44952 16.0494 7.44693C15.6047 4.52461 13.3701 2.35422 10.6412 1.59829ZM6.53277 1.55532C5.01998 1.94578 3.58582 2.78124 2.60894 4.04263C1.99985 4.82935 1.55511 5.79823 1.38433 6.96255L1.44195 6.89907C1.89283 7.30442 2.5002 7.71307 3.20367 8.09243C3.24802 7.82953 3.30745 7.56254 3.38238 7.29165C4.15012 4.51641 5.53007 2.72728 6.73492 1.62954C6.79677 1.57319 6.85773 1.51819 6.91851 1.46548C6.78973 1.49189 6.66118 1.52219 6.53277 1.55532Z" fill="#221B17"/>
</svg>
