<svg width="6" height="14" viewBox="0 0 6 14" fill="none" xmlns="http://www.w3.org/2000/svg">
<path fill-rule="evenodd" clip-rule="evenodd" d="M1.63574 10.5859C2.18237 10.5871 2.72974 10.5939 3.27637 10.6074L4.11621 10.6357C4.20798 10.6398 4.29659 10.6459 4.38086 10.6504C4.40433 10.8404 4.42861 11.0919 4.45313 11.4053L4.4541 11.4121L4.45508 11.4199C4.5077 11.9131 4.53786 12.4483 4.54785 13.0244C4.47587 13.0378 4.39323 13.055 4.29883 13.0684L4.29492 13.0693C4.00541 13.1124 3.68862 13.1486 3.3457 13.1777L3.32422 13.1797C2.98318 13.2231 2.6682 13.2514 2.38184 13.2656L2.36816 13.2666L2.35352 13.2686C2.1529 13.2896 2.00515 13.2993 1.90527 13.3047C1.83293 13.2724 1.73496 13.2296 1.61426 13.1758C1.57315 13.1574 1.53703 13.1377 1.50488 13.1221L1.47168 12.5508C1.47128 12.2134 1.46324 11.8624 1.44727 11.499L1.44727 10.7041C1.45393 10.7 1.46097 10.6955 1.46777 10.6914C1.52572 10.6569 1.58159 10.6212 1.63574 10.5859Z" fill="#322924"/>
<path d="M2.13223 9.6468L2.57851 10C2.80992 9.95585 3.04132 9.90434 3.27273 9.84547C3.52066 9.77189 3.72727 9.70567 3.89256 9.6468C4.19008 8.74908 4.47107 7.77778 4.73554 6.73289C5 5.68801 5.23967 4.6284 5.45455 3.55408C5.66942 2.47976 5.85124 1.45695 6 0.485651C5.91736 0.412068 5.78512 0.323768 5.60331 0.220752C5.43802 0.117734 5.31405 0.0441504 5.23141 1.20255e-09C5.06612 1.16455e-09 4.78512 0.014717 4.38843 0.0441509C4.00827 0.0735839 3.57851 0.117734 3.09917 0.176601C2.61983 0.235468 2.15702 0.301693 1.71074 0.375276C1.26446 0.434143 0.892562 0.500368 0.595041 0.573952L3.0612e-09 1.10375L2.13223 9.6468Z" fill="#322924"/>
</svg>
