<svg width="28" height="15" viewBox="0 0 28 15" fill="none" xmlns="http://www.w3.org/2000/svg">
<path d="M22.9165 8.25154C20.7851 12.176 18.6944 14.9236 18.0473 14.9258C17.4003 14.928 14.9125 10.5084 13.7748 8.74682C12.1378 6.21216 9.12086 0.703898 9.35823 0.348035C9.59561 -0.00782914 23.1806 -0.115594 27.0593 0.287157C27.3809 0.320542 25.4143 3.65249 22.9165 8.25154Z" fill="#FF61BF"/>
<path d="M1.75488 12.1523C2.29443 12.1542 2.83447 12.162 3.37402 12.1768L4.23535 12.208C4.27638 12.21 4.31691 12.2128 4.35645 12.2148C4.37602 12.4056 4.39866 12.6548 4.4209 12.9678L4.42285 12.9854C4.47455 13.5187 4.50487 14.0962 4.5166 14.7158C4.48044 14.7221 4.44144 14.73 4.40039 14.7363L4.39453 14.7373C4.10153 14.7853 3.78012 14.8257 3.43066 14.8584L3.41406 14.8604L3.39844 14.8623C3.05165 14.911 2.73352 14.9423 2.44531 14.958L2.40234 14.9619C2.23219 14.9816 2.10285 14.993 2.00977 15C1.94246 14.9669 1.85937 14.9264 1.76074 14.8779C1.74748 14.8714 1.73483 14.8636 1.72266 14.8574C1.7132 14.6862 1.70097 14.4924 1.69141 14.2773C1.69128 14.0822 1.68984 13.8824 1.68555 13.6797L1.66602 13.041V12.2139C1.69604 12.1939 1.72577 12.1726 1.75488 12.1523Z" fill="#FF61BF"/>
<path d="M2.19959 10.1124L2.65996 10.4824C2.89868 10.4362 3.13739 10.3822 3.37611 10.3205C3.63187 10.2435 3.84501 10.1741 4.01552 10.1124C4.32244 9.17212 4.61231 8.15472 4.88513 7.06024C5.15794 5.96577 5.40518 4.85588 5.62685 3.73057C5.84851 2.60526 6.03607 1.53391 6.18953 0.516513C6.10428 0.439437 5.96787 0.346946 5.78031 0.239041C5.6098 0.131134 5.48191 0.0540583 5.39666 0.0078125C5.22615 0.0078125 4.93628 0.0232279 4.52705 0.0540587C4.13488 0.0848886 3.69155 0.131134 3.19707 0.192795C2.70259 0.254455 2.22516 0.323824 1.76478 0.400899C1.30441 0.46256 0.920757 0.531928 0.613838 0.609004L0 1.16395L2.19959 10.1124Z" fill="#FF61BF"/>
</svg>
