<svg width="56" height="35" viewBox="0 0 56 35" fill="none" xmlns="http://www.w3.org/2000/svg">
<path d="M10.092 1.14453C10.412 -0.381299 45.0481 -0.382045 45.3644 1.1455C45.6807 2.67349 45.6842 30.1367 45.3644 31.6631C45.3508 31.7267 45.2766 31.7867 45.1496 31.8486C50.8936 31.8816 54.8648 31.9194 54.9962 31.958C55.4848 32.1017 55.4902 34.5392 54.9962 34.6826C54.5008 34.826 1.35956 34.9302 0.510897 34.6826C-0.337415 34.4348 0.0198565 31.9585 0.510897 31.8144C0.641301 31.7764 4.50861 31.7599 10.1281 31.7568C10.1115 31.7259 10.0987 31.6951 10.092 31.6631C9.54254 29.0284 9.77397 2.6705 10.092 1.14453ZM25.2912 19.6016L20.675 14.3525C19.756 15.2399 17.6078 17.6432 17.4162 18.3555C17.2253 19.0672 18.1725 20.7662 20.675 23.3379C22.6653 25.3833 25.1872 26.4382 25.5304 26.541C25.5556 26.5143 39.8617 11.3089 39.5011 10.3838C39.1398 9.46067 34.2412 7.33122 34.2228 7.32324L25.2912 19.6016Z" fill="#DAE16B"/>
</svg>
