<svg width="301" height="130" viewBox="0 0 301 130" fill="none" xmlns="http://www.w3.org/2000/svg">
<path d="M226.366 89C221.706 89 217.692 88.0551 214.323 86.1653C211.025 84.2755 208.48 81.6095 206.688 78.1674C204.896 74.6577 204 70.5069 204 65.7149C204 62.0028 204.502 58.6618 205.505 55.6922C206.509 52.655 208.147 49.7393 210.019 47.875C211.89 46.0107 213.749 45.1632 216.258 44.1508C218.839 43.0709 221.455 42.1598 224.108 41.4174C226.76 40.6749 229.305 40.2025 231.742 40C236.115 40 239.95 40.8774 243.247 42.6322C246.616 44.3871 249.233 46.8843 251.097 50.124C253.032 53.3636 254 57.2782 254 61.8678C254 64.0275 253.749 66.3223 253.247 68.7521C252.817 71.1143 252.136 73.4428 251.204 75.7376C250.344 78.0324 249.594 79.5724 247.981 81.125C246.369 82.6776 243.964 84.2417 241.527 85.2541C239.161 86.2665 236.652 87.1102 234 87.7851C231.419 88.3926 228.875 88.7975 226.366 89Z" fill="white"/>
<path d="M232.074 96.1134C232.572 103.568 232.999 114.291 231.918 116.024C230.329 118.569 227.229 117.9 225.437 117.735C224.105 117.61 222.755 104.1 222.546 96.8956C223.515 96.965 224.508 97.0001 225.523 97.0001C227.687 96.822 229.87 96.5244 232.074 96.1134ZM256.446 83.3263C261.691 88.0305 271.034 97.7251 270.264 98.8273C269.234 100.303 267.739 103.099 264.811 102.7C262.778 102.422 254.759 95.0186 249.499 89.8927C251.238 88.8185 252.823 87.6039 254.056 86.3927C255.063 85.4037 255.813 84.4171 256.446 83.3263ZM199.272 81.84C199.363 82.031 199.454 82.221 199.548 82.4093C200.977 85.2086 202.768 87.6261 204.921 89.6632C198.651 93.3571 190.471 97.8568 188.587 97.6876C185.612 97.4195 184.801 94.3535 184.135 92.6818C183.692 91.5628 192.849 85.5398 199.272 81.84ZM177.885 55.4337C178.229 54.3161 189.102 55.4401 196.812 56.6652C196.271 59.4516 196.001 62.4423 196.001 65.6369C196.001 65.852 196.005 66.0662 196.007 66.2794C188.601 65.1113 179.733 63.4395 178.347 62.1632C176.048 60.0447 177.357 57.1535 177.885 55.4337ZM261.643 55.0558C267.94 52.905 276.061 50.4224 277.715 51.0148C280.336 51.9548 280.499 55.1178 280.789 56.8937C281.022 58.3232 267.471 63.4756 261.743 65.0265C261.914 63.4556 262.001 61.9313 262.001 60.4542C262.001 58.5703 261.88 56.7709 261.643 55.0558ZM201.385 21.6574C202.818 20.5689 205.1 18.3673 207.753 19.6281C209.427 20.4241 213.974 28.3022 217.343 34.5724C215.611 35.1877 213.89 35.8613 212.181 36.591C210.806 37.1572 209.579 37.6866 208.437 38.2902C204.95 31.9286 200.436 22.3804 201.385 21.6574ZM247.722 18.0783C250.191 16.5327 252.722 18.4416 254.275 19.3507C255.26 19.9279 252.3 29.0332 249.712 35.6583C249.099 35.2656 248.463 34.8952 247.806 34.546C245.666 33.3836 243.354 32.5069 240.87 31.9161C243.319 25.7741 246.318 18.9583 247.722 18.0783Z" fill="white"/>
<path d="M11.0832 40.4477C15.3297 35.9304 125.645 36.8222 129.405 37.7633C133.165 38.7044 131.678 95.6933 128.803 95.6933C125.928 95.6933 20.3725 99.926 12.4103 96.9144C2.45759 93.1499 5.77512 46.0945 11.0832 40.4477Z" stroke="white" stroke-width="5.66"/>
<path d="M140.156 77.2298C138.883 73.6539 140.212 59.2053 141.632 53.6931C147.789 52.6665 152.826 51.4245 155.595 55.3022C158.57 59.4673 156.089 69.8572 155.143 73.532C154.196 77.2069 140.811 79.0688 140.156 77.2298Z" fill="white"/>
<path d="M46.3986 45.9817C46.0895 60.3972 45.8262 81.619 45.8595 89.4455C34.4879 89.4995 25.8113 89.3151 23.925 88.678C15.9059 85.9675 18.5788 52.0874 22.8556 48.0217C23.9419 46.9914 33.6056 46.3529 46.3986 45.9817ZM85.0802 45.5422C84.9508 53.1797 84.8043 62.83 84.7101 71.3567C84.6521 76.6132 84.6143 81.4583 84.6125 85.1457C84.6118 86.508 84.6187 87.7246 84.6291 88.7522C75.6168 88.9855 65.8537 89.2081 56.8322 89.3371C56.8052 82.1068 57.0665 60.4141 57.3859 45.7356C66.4167 45.585 76.1263 45.5321 85.0802 45.5422ZM96.0607 45.5881C108.228 45.6776 117.259 45.8809 118.19 46.0891C121.219 46.768 120.021 87.7957 117.704 87.7981C116.966 87.7982 107.873 88.1051 95.6047 88.4553C95.5959 87.5232 95.5904 86.4129 95.591 85.1506C95.5928 81.5212 95.6308 76.7217 95.6886 71.4778C95.7831 62.926 95.931 53.2319 96.0607 45.5881Z" fill="white"/>
</svg>
