<svg width="301" height="130" viewBox="0 0 301 130" fill="none" xmlns="http://www.w3.org/2000/svg">
<path d="M227.24 88.4253C220.872 88.4253 219.378 87.6362 214.064 88.4253C207.991 88.4253 197.631 87.6362 192.317 85.7934C183.966 84.2152 180.929 80.4219 180.929 73.1677C180.929 67.5482 189.77 56.0719 196.603 50.5481C201.158 48.1807 209.509 53.705 209.509 53.705C209.509 53.705 206.472 49.4946 209.509 36.8687C216.611 31.08 224.646 27.7339 228.27 26.61C231.895 25.4861 245.95 25.297 251.265 31.6071C262.163 41.6034 255.33 55.8073 255.33 55.8073C255.33 55.8073 261.941 49.7891 271.273 53.235C276.588 55.8073 279.624 57.5821 279.624 64.5298C279.624 67.7994 280.31 70.533 279.624 74.2112C279.037 77.7872 278.106 82.2663 275.069 85.506C270.514 88.4253 270.514 87.1322 263.681 88.4253C256.848 89.7184 259.885 88.4253 255.33 88.4253C249.257 88.4253 246.808 87.4036 243.183 88.4253C239.656 89.3448 230.669 88.1188 227.24 88.4253Z" fill="white"/>
<path d="M10.0832 37.4477C14.3297 32.9304 124.645 33.8222 128.405 34.7633C132.165 35.7044 130.678 92.6933 127.803 92.6933C124.928 92.6933 19.3725 96.926 11.4103 93.9144C1.45759 90.1499 4.77512 43.0945 10.0832 37.4477Z" stroke="white" stroke-width="3.65977"/>
<path d="M137.156 74.2298C135.883 70.6539 137.212 56.2053 138.632 50.6931C144.789 49.6665 149.826 48.4245 152.595 52.3022C155.57 56.4673 153.089 66.8572 152.143 70.532C151.196 74.2069 137.811 76.0688 137.156 74.2298Z" fill="white"/>
<path fill-rule="evenodd" clip-rule="evenodd" d="M19.1025 45.0209C21.5574 42.8204 35.6525 42.3613 45.5078 42.5043C45.0063 50.128 44.5486 59.5872 44.2392 67.9643C44.0461 73.1954 43.9084 78.0406 43.8525 81.7846C43.8247 83.6525 43.8169 85.2774 43.834 86.5522C43.8346 86.6005 43.8352 86.6496 43.8359 86.6986C36.9016 86.9702 25.1948 87.2576 20.2363 85.6772C11.7332 82.9666 14.5675 49.0869 19.1025 45.0209Z" fill="white"/>
</svg>
