<svg width="95" height="91" viewBox="0 0 95 91" fill="none" xmlns="http://www.w3.org/2000/svg">
<path d="M47.4134 28.2166C51.3948 28.2166 64.2798 1.55517 67.1962 0.921C70.1125 0.286834 92.8116 0.170449 94.2047 0.921C95.5979 1.67155 60.6019 39.4663 60.6019 45.0272C60.6019 50.5882 97.7049 88.4796 94.8425 90.0221C91.9801 91.5647 69.9536 91.0633 67.5738 90.0221C65.1941 88.9809 50.5171 61.6856 47.4134 61.9613C44.3097 62.2369 29.3673 89.0514 27.1229 90.0221C24.8785 90.9928 2.52569 91.3058 0.114268 90.0221C-2.29715 88.7385 34.2248 50.5882 34.2248 45.0272C34.2248 39.4663 -1.7133 2.28123 0.752022 0.921C3.21734 -0.43923 25.4366 -0.167264 27.8845 0.921C30.3323 2.00926 43.432 28.2166 47.4134 28.2166Z" fill="#D9D9D9"/>
</svg>
