<svg width="27" height="27" viewBox="0 0 27 27" fill="none" xmlns="http://www.w3.org/2000/svg">
<path d="M11.9039 24.0948C11.8414 25.0255 11.7633 25.9262 11.6695 26.7969L17.1528 24.4894C17.0591 22.7781 17.0122 22.9389 17.0122 21.6178C17.0122 20.2968 16.981 18.8106 16.9185 17.1593C17.3247 16.4087 17.8402 15.478 18.4651 14.3671C19.1212 13.2563 19.8242 12.1004 20.574 10.8994C21.3239 9.69847 22.0425 8.54257 22.7298 7.4317C23.4484 6.32083 24.0577 5.36008 24.5576 4.54944C25.0887 3.73881 25.448 3.21339 25.6355 2.97321L26.796 1.44201L26.1979 0.135986C25.2606 0.196033 24.0264 0.256077 22.4955 0.316122C20.9958 0.346148 19.2774 0.361162 17.3403 0.361162L12.2788 0.000875473C12.1226 0.000875473 11.6852 0.030901 10.9666 0.0909462C10.248 0.120972 9.32626 0.16601 8.20149 0.226055C7.10795 0.256079 5.8582 0.286098 4.45224 0.316122C3.07751 0.346148 1.65592 0.361162 0.187463 0.361162C0.124975 0.721443 0.0781094 1.08173 0.0468656 1.44201C0.0156219 1.77227 0 2.11754 0 2.47782L2.95254 3.10831C3.3587 3.67876 3.84298 4.38431 4.40537 5.22497C4.999 6.06563 5.62388 6.99636 6.27999 8.01716C6.96736 9.00794 7.65472 10.0738 8.34208 11.2147C9.06069 12.3255 9.73243 13.4814 10.3573 14.6824C11.0134 15.8533 11.6227 17.0242 12.1851 18.1951C12.1538 19.1559 12.107 20.1467 12.0445 21.1675C12.0132 22.1582 11.9664 23.134 11.9039 24.0948Z" fill="#DAE16B"/>
</svg>
